<svg xmlns="http://www.w3.org/2000/svg" width="14.969" height="14.968" viewBox="0 0 14.969 14.968">
  <g id="ic_close_black" transform="translate(0 -0.016)">
    <g id="Grupo_49" data-name="Grupo 49" transform="translate(0 0.016)">
      <g id="Grupo_48" data-name="Grupo 48" transform="translate(0 0)">
        <path id="Trazado_162" data-name="Trazado 162" d="M9.133,7.5l5.6-5.6a.82.82,0,0,0,0-1.158l-.49-.49a.821.821,0,0,0-1.158,0l-5.6,5.6-5.6-5.6A.82.82,0,0,0,.73.255L.24.745A.819.819,0,0,0,.24,1.9l5.6,5.6L.24,13.1a.821.821,0,0,0,0,1.158l.491.49a.82.82,0,0,0,1.158,0l5.6-5.6,5.6,5.6a.812.812,0,0,0,.579.239h0a.812.812,0,0,0,.579-.239l.49-.49a.821.821,0,0,0,0-1.158Z" transform="translate(0 -0.016)" fill="#cbcbcb"/>
      </g>
    </g>
  </g>
</svg>
