<svg xmlns="http://www.w3.org/2000/svg" width="25.25" height="19.233" viewBox="0 0 25.25 19.233">
  <g id="ic_solicitud" transform="translate(0 -61)">
    <g id="Grupo_41" data-name="Grupo 41" transform="translate(1.268 61)">
      <g id="Grupo_40" data-name="Grupo 40" transform="translate(0 0)">
        <path id="Trazado_158" data-name="Trazado 158" d="M47.483,61H26.672a2.193,2.193,0,0,0-.951.222L37.028,72.53l2.534-2.436h0l8.871-8.871A2.193,2.193,0,0,0,47.483,61Z" transform="translate(-25.721 -61)" fill="#ffae31"/>
      </g>
    </g>
    <g id="Grupo_43" data-name="Grupo 43" transform="translate(16.679 62.269)">
      <g id="Grupo_42" data-name="Grupo 42" transform="translate(0 0)">
        <path id="Trazado_159" data-name="Trazado 159" d="M346.561,86.728l-8.348,8.348,8.348,8.348a2.193,2.193,0,0,0,.222-.951V87.678A2.193,2.193,0,0,0,346.561,86.728Z" transform="translate(-338.213 -86.728)" fill="#ffae31"/>
      </g>
    </g>
    <g id="Grupo_45" data-name="Grupo 45" transform="translate(0 62.268)">
      <g id="Grupo_44" data-name="Grupo 44" transform="translate(0 0)">
        <path id="Trazado_160" data-name="Trazado 160" d="M.222,86.721A2.193,2.193,0,0,0,0,87.672v14.795a2.194,2.194,0,0,0,.222.951l8.348-8.348Z" transform="translate(0 -86.721)" fill="#ffae31"/>
      </g>
    </g>
    <g id="Grupo_47" data-name="Grupo 47" transform="translate(1.268 71.663)">
      <g id="Grupo_46" data-name="Grupo 46" transform="translate(0 0)">
        <path id="Trazado_161" data-name="Trazado 161" d="M40.079,277.211l-2.535,2.436a.739.739,0,0,1-1.046,0l-2.436-2.436-8.349,8.348a2.193,2.193,0,0,0,.951.223H47.477a2.194,2.194,0,0,0,.951-.222Z" transform="translate(-25.714 -277.211)" fill="#ffae31"/>
      </g>
    </g>
  </g>
</svg>
