<svg xmlns="http://www.w3.org/2000/svg" width="58.183" height="41.135" viewBox="0 0 58.183 41.135">
  <g id="Logo" transform="translate(0 -8.524)">
    <g id="Grupo_2" data-name="Grupo 2">
      <g id="Grupo_1" data-name="Grupo 1">
        <path id="Trazado_1" data-name="Trazado 1" d="M46.069,8.835,43.153,11.7a9.175,9.175,0,0,1-1.654-.55L36.93,8.924a4.494,4.494,0,0,0-1.936-.4,4.925,4.925,0,0,0-2.76.782l-7.067,4.956a2.671,2.671,0,0,0-.6,3.777l.419.566a3.066,3.066,0,0,0,2.455,1.2,2.936,2.936,0,0,0,1.521-.413l3.353-2.14a4.135,4.135,0,0,1,2.107-.533,4.287,4.287,0,0,1,2.457.718l4.867,4.459a53.458,53.458,0,0,1,4.226,3.461l4.42,4.108,7.795-9.032Z" fill="#5f6caf"/>
      </g>
    </g>
    <g id="Grupo_4" data-name="Grupo 4">
      <g id="Grupo_3" data-name="Grupo 3">
        <path id="Trazado_2" data-name="Trazado 2" d="M49.027,32.775,41.63,25.9c-.643-.522-2.076-1.619-2.076-1.619l-4.636-4.246a1.488,1.488,0,0,0-.5-.08,1.206,1.206,0,0,0-.423.064l-3.362,2.143a6.176,6.176,0,0,1-3.194.879,6.305,6.305,0,0,1-5.058-2.509l-.418-.563a5.909,5.909,0,0,1,1.346-8.36l.761-.533a6.583,6.583,0,0,0-3.207.364s-1.493.656-1.972.859a8.037,8.037,0,0,1-2.666.464l-3.652-3.4L0,21.85,4.728,26.6,5.8,25.48a5.983,5.983,0,0,1,8.451-.2l.509.485a5.958,5.958,0,0,1,1.447,2.155,5.935,5.935,0,0,1,2.625,1.46l.506.484a5.93,5.93,0,0,1,1.851,4.18,5.932,5.932,0,0,1,.985.761l.512.488a5.936,5.936,0,0,1,1.527,2.383,5.936,5.936,0,0,1,2.437,1.4l.518.492a5.991,5.991,0,0,1,.953,7.48l.388.362a2.744,2.744,0,0,0,3.867-.14l.479-.517a2.731,2.731,0,0,0-.087-3.793l3.547,3.29a2.747,2.747,0,0,0,3.869-.145l.479-.515a2.744,2.744,0,0,0-.126-3.848l.912.848a2.744,2.744,0,0,0,3.866-.143l.48-.516a2.747,2.747,0,0,0-.143-3.869l-.77-.714a2.742,2.742,0,0,0,3.8-.191l.482-.517A2.744,2.744,0,0,0,49.027,32.775Z" fill="#5f6caf"/>
      </g>
    </g>
    <g id="Grupo_6" data-name="Grupo 6">
      <g id="Grupo_5" data-name="Grupo 5">
        <path id="Trazado_3" data-name="Trazado 3" d="M24.933,41.915l-.512-.487a2.743,2.743,0,0,0-3.868.092l-.009-.015a2.745,2.745,0,0,0-.093-3.868l-.511-.487a2.709,2.709,0,0,0-1.875-.748,2.749,2.749,0,0,0-1.892.752L17.2,36.08a2.743,2.743,0,0,0-.092-3.869l-.51-.487a2.743,2.743,0,0,0-3.817.046,2.735,2.735,0,0,0-.254-3.659l-.509-.486a2.745,2.745,0,0,0-3.87.092L3.007,33.1a2.74,2.74,0,0,0,.1,3.867l.508.486a2.7,2.7,0,0,0,1.872.745,2.756,2.756,0,0,0,1.745-.621L5.873,39a2.747,2.747,0,0,0,.092,3.869l.513.487a2.743,2.743,0,0,0,3.868-.092L11.4,42.155a2.737,2.737,0,0,0,.177,3.759l.513.487a2.744,2.744,0,0,0,3.868-.093l1.7-1.758a2.743,2.743,0,0,0,.092,3.869l.512.487a2.74,2.74,0,0,0,3.866-.092l2.9-3.034A2.741,2.741,0,0,0,24.933,41.915Z" fill="#5f6caf"/>
      </g>
    </g>
  </g>
</svg>
