<svg xmlns="http://www.w3.org/2000/svg" xmlns:xlink="http://www.w3.org/1999/xlink" width="490.305" height="553.883" viewBox="0 0 490.305 553.883">
  <defs>
    <linearGradient id="linear-gradient" x1="0.5" y1="1" x2="0.5" gradientUnits="objectBoundingBox">
      <stop offset="0" stop-color="gray" stop-opacity="0.251"/>
      <stop offset="0.54" stop-color="gray" stop-opacity="0.122"/>
      <stop offset="1" stop-color="gray" stop-opacity="0.102"/>
    </linearGradient>
    <linearGradient id="linear-gradient-2" x1="0.5" y1="1" x2="0.5" y2="0" xlink:href="#linear-gradient"/>
    <linearGradient id="linear-gradient-3" x1="-0.001" y1="0.5" x2="1" y2="0.5" xlink:href="#linear-gradient"/>
  </defs>
  <g id="PulbicationPostIlustration" transform="translate(-0.093 -0.05)">
    <g id="Grupo_17" data-name="Grupo 17" transform="translate(347.344 287.808)" opacity="0.2">
      <path id="Trazado_110" data-name="Trazado 110" d="M758.56,760.773a16.766,16.766,0,0,1-1.522,2.344q-7.579-5.329-15.418-10.464l.339-.671a14.806,14.806,0,0,1,5.243-5.711c2.885-1.774,6.137-2.163,8.812-.721s4.168,4.327,4.327,7.695a14.856,14.856,0,0,1-1.781,7.529Z" transform="translate(-741.62 -543.007)" fill="#3f3d56"/>
      <ellipse id="Elipse_2" data-name="Elipse 2" cx="12.296" cy="9.389" rx="12.296" ry="9.389" transform="translate(1.624 206.637) rotate(-62.09)" fill="#3f3d56"/>
      <ellipse id="Elipse_3" data-name="Elipse 3" cx="12.296" cy="9.389" rx="12.296" ry="9.389" transform="translate(8.659 193.359) rotate(-62.09)" fill="#3f3d56"/>
      <ellipse id="Elipse_4" data-name="Elipse 4" cx="12.296" cy="9.389" rx="12.296" ry="9.389" transform="translate(15.694 180.08) rotate(-62.09)" fill="#3f3d56"/>
      <ellipse id="Elipse_5" data-name="Elipse 5" cx="12.296" cy="9.389" rx="12.296" ry="9.389" transform="translate(22.721 166.808) rotate(-62.09)" fill="#3f3d56"/>
      <path id="Trazado_111" data-name="Trazado 111" d="M795.86,518.012a44.482,44.482,0,0,1-.721-6.187l23.74,7.99L795.2,507.5a45.036,45.036,0,0,1,15.923-31.9l22.94,33.173-17.812-36.894a44.978,44.978,0,1,1,42.086,79.247,45,45,0,0,1,.721,9.656L823,560.495l35.538,5.856a44.978,44.978,0,0,1-26.17,33.894,44.978,44.978,0,1,1-62.487-33.094,44.992,44.992,0,0,1,26.033-49.146Z" transform="translate(-742.041 -465.029)" fill="#ffae31"/>
      <path id="Trazado_112" data-name="Trazado 112" d="M853.81,618.609a44.813,44.813,0,0,1-21.519,20.07A44.978,44.978,0,1,1,769.8,605.585C768.059,596,856.176,614.145,853.81,618.609Z" transform="translate(-742.018 -503.455)" opacity="0.1"/>
    </g>
    <g id="Grupo_18" data-name="Grupo 18" transform="translate(0.093 0.931)" opacity="0.2">
      <path id="Trazado_113" data-name="Trazado 113" d="M476.656,676.949a31.214,31.214,0,0,0,1.724,5.084q16.666-6.382,33.714-12.26c-.1-.461-.2-.937-.317-1.442a28.507,28.507,0,0,0-7.089-13.139c-4.536-4.673-10.421-6.952-16.082-5.567s-9.829,6.108-11.711,12.324A28.521,28.521,0,0,0,476.656,676.949Z" transform="translate(-320.235 -229.515)" fill="#3f3d56"/>
      <ellipse id="Elipse_6" data-name="Elipse 6" cx="18.079" cy="23.661" rx="18.079" ry="23.661" transform="translate(143.974 396.306) rotate(-13.72)" fill="#3f3d56"/>
      <ellipse id="Elipse_7" data-name="Elipse 7" cx="18.079" cy="23.661" rx="18.079" ry="23.661" transform="translate(137.107 368.209) rotate(-13.72)" fill="#3f3d56"/>
      <ellipse id="Elipse_8" data-name="Elipse 8" cx="18.079" cy="23.661" rx="18.079" ry="23.661" transform="translate(130.25 340.111) rotate(-13.72)" fill="#3f3d56"/>
      <ellipse id="Elipse_9" data-name="Elipse 9" cx="18.079" cy="23.661" rx="18.079" ry="23.661" transform="translate(123.392 312.02) rotate(-13.72)" fill="#3f3d56"/>
      <path id="Trazado_114" data-name="Trazado 114" d="M425.442,189.657a85.57,85.57,0,0,0,4.19-11.221l-47.992,3.685,50.019-11.834A86.768,86.768,0,0,0,417,103.22l-58.5,51.1,50.668-60.454A86.588,86.588,0,1,0,293.2,221.906a86.054,86.054,0,0,0-5.849,17.682l67.492,16.5-69.086-5.856a86.638,86.638,0,0,0,32.841,75.72,86.588,86.588,0,1,0,132.237-32.271,86.6,86.6,0,0,0-25.392-104.025Z" transform="translate(-260.093 -67.221)" fill="#ffae31"/>
      <path id="Trazado_115" data-name="Trazado 115" d="M298.651,358.364a86.184,86.184,0,0,0,30.692,47.6A86.588,86.588,0,1,0,461.58,373.688C469.361,356.64,296.343,348.924,298.651,358.364Z" transform="translate(-270.839 -147.271)" opacity="0.1"/>
    </g>
    <path id="Trazado_116" data-name="Trazado 116" d="M714.992,187.34h-1.608V100.615C713.384,81.49,697.641,66,678.221,66H481.254c-19.42,0-35.163,15.5-35.163,34.615v35.949h-.469a2.055,2.055,0,0,0-2.07,2.034v17.308a2.055,2.055,0,0,0,2.07,2.034h.5v17.675h-.635a2.048,2.048,0,0,0-2.062,2.034v33.093a2.055,2.055,0,0,0,2.062,2.041h.635v12.981h-.548a2.048,2.048,0,0,0-2.07,2.034v33.418a2.048,2.048,0,0,0,2.07,2.034h.548V566.4c0,19.125,15.743,34.615,35.163,34.615H678.214c19.42,0,35.163-15.5,35.163-34.615V252.2h1.615a2.055,2.055,0,0,0,2.07-2.034V189.374a2.055,2.055,0,0,0-2.07-2.034Z" transform="translate(-311.124 -65.95)" fill="url(#linear-gradient)"/>
    <g id="Grupo_19" data-name="Grupo 19" transform="translate(136.2 3.656)" opacity="0.9">
      <rect id="Rectángulo_50" data-name="Rectángulo 50" width="7.767" height="64.052" rx="2.29" transform="translate(258.423 119.862)" fill="#e5e7eb"/>
      <rect id="Rectángulo_51" data-name="Rectángulo 51" width="4.363" height="21.086" rx="2.181" transform="translate(0.159 69.684)" fill="#e5e7eb"/>
      <rect id="Rectángulo_52" data-name="Rectángulo 52" width="4.918" height="36.699" rx="2.29" transform="translate(0 108.287)" fill="#e5e7eb"/>
      <rect id="Rectángulo_53" data-name="Rectángulo 53" width="4.68" height="37.016" rx="2.29" transform="translate(0.079 157.83)" fill="#e5e7eb"/>
      <rect id="Rectángulo_54" data-name="Rectángulo 54" width="259.988" height="528.391" rx="38.99" transform="translate(2.625)" fill="#ff656a"/>
      <rect id="Rectángulo_55" data-name="Rectángulo 55" width="36.31" height="7.37" rx="3.685" transform="translate(107.544 15.779)" fill="#e5e7eb"/>
      <circle id="Elipse_10" data-name="Elipse 10" cx="4.183" cy="4.183" r="4.183" transform="translate(149.335 15.281)" fill="#e5e7eb"/>
    </g>
    <path id="Trazado_117" data-name="Trazado 117" d="M681.969,90.09H652.207V93.7a17,17,0,0,1-17,17H540.314a17,17,0,0,1-17-17V90.09H495.386a20.646,20.646,0,0,0-20.646,20.646V570.308a20.646,20.646,0,0,0,20.646,20.646H681.969a20.646,20.646,0,0,0,20.646-20.646V110.736A20.646,20.646,0,0,0,681.969,90.09Z" transform="translate(-319.855 -72.668)" fill="#ececf3"/>
    <ellipse id="Elipse_11" data-name="Elipse 11" cx="41.242" cy="6.973" rx="41.242" ry="6.973" transform="translate(21.711 536.46)" fill="#ffae31"/>
    <path id="Trazado_118" data-name="Trazado 118" d="M356.15,796.32a12.075,12.075,0,0,0,3.93-5.935c.5-2.329-.49-5.185-2.748-6.043-2.524-.966-5.221.779-7.262,2.546s-4.392,3.786-7.067,3.411a10.745,10.745,0,0,0,3.324-10.1,4.162,4.162,0,0,0-.923-2.041c-1.4-1.5-3.937-.858-5.618.325-5.329,3.75-6.822,11-6.851,17.524-.541-2.358-.087-4.81-.1-7.211s-.671-5.091-2.7-6.389a8.214,8.214,0,0,0-4.139-.966c-2.394-.087-5.048.152-6.7,1.9-2.041,2.163-1.507,5.834.26,8.235s4.464,3.9,6.945,5.56a15.379,15.379,0,0,1,4.954,4.731,4.263,4.263,0,0,1,.368.844H346.84A42.122,42.122,0,0,0,356.15,796.32Z" transform="translate(-276.142 -264.295)" fill="#ffae31"/>
    <g id="Grupo_20" data-name="Grupo 20" transform="translate(423.613 487.678)" opacity="0.4">
      <ellipse id="Elipse_12" data-name="Elipse 12" cx="23.538" cy="3.981" rx="23.538" ry="3.981" transform="translate(0 13.409)" fill="#ffae31"/>
      <path id="Trazado_119" data-name="Trazado 119" d="M885.087,753.064a6.879,6.879,0,0,0,2.25-3.382,3.021,3.021,0,0,0-1.572-3.454c-1.442-.548-2.978.447-4.147,1.442s-2.5,2.163-4.031,1.947a6.122,6.122,0,0,0,1.9-5.769,2.352,2.352,0,0,0-.526-1.161c-.8-.858-2.25-.49-3.2.18-3.043,2.164-3.894,6.281-3.916,10a19.147,19.147,0,0,1-.051-4.118,4.267,4.267,0,0,0-1.551-3.649,4.7,4.7,0,0,0-2.358-.548,4.913,4.913,0,0,0-3.829,1.082c-1.161,1.248-.858,3.332.152,4.7a14.712,14.712,0,0,0,3.966,3.173,8.863,8.863,0,0,1,2.827,2.7,2.449,2.449,0,0,1,.209.483h8.582A23.8,23.8,0,0,0,885.087,753.064Z" transform="translate(-851.82 -742.185)" fill="#ffae31"/>
    </g>
    <g id="Grupo_21" data-name="Grupo 21" transform="translate(63.097 442.944)" opacity="0.4">
      <ellipse id="Elipse_13" data-name="Elipse 13" cx="23.538" cy="3.981" rx="23.538" ry="3.981" transform="translate(0 13.411)" fill="#ffae31"/>
      <path id="Trazado_120" data-name="Trazado 120" d="M385.177,691.033a6.8,6.8,0,0,0,2.243-3.389,3.007,3.007,0,0,0-1.572-3.447c-1.442-.548-2.978.447-4.139,1.442s-2.51,2.163-4.031,1.947a6.159,6.159,0,0,0,1.9-5.769,2.437,2.437,0,0,0-.526-1.168c-.8-.851-2.25-.483-3.209.188-3.043,2.163-3.894,6.274-3.909,10a18.691,18.691,0,0,1-.058-4.118,4.132,4.132,0,0,0-1.543-3.606,4.66,4.66,0,0,0-2.365-.555,4.872,4.872,0,0,0-3.822,1.089c-1.161,1.248-.858,3.332.151,4.7a14.928,14.928,0,0,0,3.959,3.173,8.717,8.717,0,0,1,2.827,2.7,2.959,2.959,0,0,1,.216.483h8.574a24.007,24.007,0,0,0,5.308-3.664Z" transform="translate(-351.903 -680.153)" fill="#ffae31"/>
    </g>
    <rect id="Rectángulo_56" data-name="Rectángulo 56" width="36.843" height="36.843" transform="translate(172.365 55.578)" fill="#d6d8e0"/>
    <rect id="Rectángulo_57" data-name="Rectángulo 57" width="77.191" height="7.017" transform="translate(236.396 58.21)" fill="#d6d8e0"/>
    <rect id="Rectángulo_58" data-name="Rectángulo 58" width="127.188" height="7.017" transform="translate(236.396 70.492)" fill="#d6d8e0"/>
    <rect id="Rectángulo_59" data-name="Rectángulo 59" width="127.188" height="7.017" transform="translate(236.396 82.773)" fill="#d6d8e0"/>
    <rect id="Rectángulo_60" data-name="Rectángulo 60" width="36.843" height="36.843" transform="translate(172.647 123.121)" fill="#d6d8e0"/>
    <rect id="Rectángulo_61" data-name="Rectángulo 61" width="77.191" height="7.017" transform="translate(236.677 125.753)" fill="#d6d8e0"/>
    <rect id="Rectángulo_62" data-name="Rectángulo 62" width="127.188" height="7.017" transform="translate(236.677 138.034)" fill="#d6d8e0"/>
    <rect id="Rectángulo_63" data-name="Rectángulo 63" width="127.188" height="7.017" transform="translate(236.677 150.308)" fill="#d6d8e0"/>
    <rect id="Rectángulo_64" data-name="Rectángulo 64" width="36.843" height="36.843" transform="translate(172.928 190.663)" fill="#d6d8e0"/>
    <rect id="Rectángulo_65" data-name="Rectángulo 65" width="77.191" height="7.017" transform="translate(236.966 193.288)" fill="#d6d8e0"/>
    <rect id="Rectángulo_66" data-name="Rectángulo 66" width="127.188" height="7.017" transform="translate(236.966 205.569)" fill="#d6d8e0"/>
    <rect id="Rectángulo_67" data-name="Rectángulo 67" width="127.188" height="7.017" transform="translate(236.966 217.85)" fill="#d6d8e0"/>
    <rect id="Rectángulo_68" data-name="Rectángulo 68" width="36.843" height="36.843" transform="translate(173.209 258.199)" fill="#d6d8e0"/>
    <rect id="Rectángulo_69" data-name="Rectángulo 69" width="77.191" height="7.017" transform="translate(237.247 260.831)" fill="#d6d8e0"/>
    <rect id="Rectángulo_70" data-name="Rectángulo 70" width="127.188" height="7.017" transform="translate(237.247 273.112)" fill="#d6d8e0"/>
    <rect id="Rectángulo_71" data-name="Rectángulo 71" width="127.188" height="7.017" transform="translate(237.247 285.393)" fill="#d6d8e0"/>
    <rect id="Rectángulo_72" data-name="Rectángulo 72" width="36.843" height="36.843" transform="translate(173.498 325.741)" fill="#d6d8e0"/>
    <rect id="Rectángulo_73" data-name="Rectángulo 73" width="77.191" height="7.017" transform="translate(237.528 328.373)" fill="#d6d8e0"/>
    <rect id="Rectángulo_74" data-name="Rectángulo 74" width="127.188" height="7.017" transform="translate(237.528 340.654)" fill="#d6d8e0"/>
    <rect id="Rectángulo_75" data-name="Rectángulo 75" width="127.188" height="7.017" transform="translate(237.528 352.936)" fill="#d6d8e0"/>
    <rect id="Rectángulo_76" data-name="Rectángulo 76" width="36.843" height="36.843" transform="translate(173.779 393.284)" fill="#d6d8e0"/>
    <rect id="Rectángulo_77" data-name="Rectángulo 77" width="77.191" height="7.017" transform="translate(237.809 395.916)" fill="#d6d8e0"/>
    <rect id="Rectángulo_78" data-name="Rectángulo 78" width="127.188" height="7.017" transform="translate(237.809 408.197)" fill="#d6d8e0"/>
    <rect id="Rectángulo_79" data-name="Rectángulo 79" width="127.188" height="7.017" transform="translate(237.809 420.478)" fill="#d6d8e0"/>
    <rect id="Rectángulo_80" data-name="Rectángulo 80" width="36.843" height="36.843" transform="translate(174.06 460.826)" fill="#d6d8e0"/>
    <rect id="Rectángulo_81" data-name="Rectángulo 81" width="77.191" height="7.017" transform="translate(238.091 463.458)" fill="#d6d8e0"/>
    <rect id="Rectángulo_82" data-name="Rectángulo 82" width="127.188" height="7.017" transform="translate(238.091 475.739)" fill="#d6d8e0"/>
    <rect id="Rectángulo_83" data-name="Rectángulo 83" width="127.188" height="7.017" transform="translate(238.091 488.021)" fill="#d6d8e0"/>
    <rect id="Rectángulo_84" data-name="Rectángulo 84" width="314.023" height="78.064" transform="translate(111.811 166.671)" fill="url(#linear-gradient-2)"/>
    <rect id="Rectángulo_85" data-name="Rectángulo 85" width="311.391" height="74.559" transform="translate(113.563 168.43)" fill="#ff656a"/>
    <rect id="Rectángulo_86" data-name="Rectángulo 86" width="36.843" height="36.843" transform="translate(173.649 187.288)" fill="#ffae31"/>
    <g id="Grupo_22" data-name="Grupo 22" transform="translate(237.687 189.921)" opacity="0.5">
      <rect id="Rectángulo_87" data-name="Rectángulo 87" width="77.191" height="7.017" fill="#ffae31"/>
      <rect id="Rectángulo_88" data-name="Rectángulo 88" width="127.188" height="7.017" transform="translate(0 12.281)" fill="#ffae31"/>
      <rect id="Rectángulo_89" data-name="Rectángulo 89" width="127.188" height="7.017" transform="translate(0 24.562)" fill="#ffae31"/>
    </g>
    <path id="Trazado_121" data-name="Trazado 121" d="M527.483,389.621a6.416,6.416,0,0,0-7.579-1.154c-1.832,1.1-2.841,3.159-3.764,5.1-1.349,2.885-3.324,5.582-3.93,8.7-1.666,8.589-8.5,15.259-11.243,23.56-.981,2.964-1.442,6.144-2.993,8.848a28.152,28.152,0,0,1-2.452,3.375,95.04,95.04,0,0,0-9.375,14.3c-1.558.3-2.942,1.623-4.269,2.654a14.731,14.731,0,0,1-5.769,2.733,5.446,5.446,0,0,0-2.365.865c-1,.829-1.132,2.322-1.94,3.324a5.177,5.177,0,0,1-2.163,1.442c0-.252-.036-.5-.043-.764-.036-1.334-.058-2.675-.058-4.017a15.1,15.1,0,0,0-.043-19.6,29.568,29.568,0,0,1,.829-6.195,2.752,2.752,0,0,0-.584-2.841c-.4-.31-.909-.425-1.334-.721a5.813,5.813,0,0,1-1.442-1.832,7.788,7.788,0,0,0-9.793-2.5c-2.6,1.37-4.183,4.11-6.49,5.971-1.183.952-2.546,1.666-3.728,2.625a15.483,15.483,0,0,0-4.824,7.846,44.941,44.941,0,0,0-1.312,9.259,8.356,8.356,0,0,0,.108,2.813,7.425,7.425,0,0,0,1.06,2.163,24.245,24.245,0,0,0,8.964,8.546,3.513,3.513,0,0,1,0,.555,4,4,0,0,1-.159.858l-.418-.115c-1.543-.346-3.209-.3-4.594-1.075-2.365-1.327-3.079-4.565-5.344-6.05a4.091,4.091,0,0,0-.606-.325,40.471,40.471,0,0,0-2.322-12.022c-.663-1.846-1.478-3.728-1.377-5.7a14,14,0,0,1,1.738-5.156,131.058,131.058,0,0,0,6.49-17.762q1.8-5.675,3.606-11.358a17.9,17.9,0,0,0,3.166-3.014,16.073,16.073,0,0,0,3.671-7.882,11.164,11.164,0,0,0-2.026-8.336,4.817,4.817,0,0,0-3.389-2.077,4.406,4.406,0,0,0-3.166,1.442,14.076,14.076,0,0,0-2.711,4.659c-1.183,2.791-2.38,5.69-2.264,8.719.094,2.51,1.031,5.315-.433,7.356-4.8,6.685-8.416,14.372-12.216,21.685a38.788,38.788,0,0,0-2.466,5.437,30.29,30.29,0,0,0-1.291,9.375,125.708,125.708,0,0,0,1.586,17.769,22.834,22.834,0,0,0,2.1,7.788,32.664,32.664,0,0,0-1.291,8.769,5,5,0,0,0,.317,2.012,8.307,8.307,0,0,0,1.594,2,8.978,8.978,0,0,1,2.163,7.1,20.125,20.125,0,0,0,.642,7.11c1.442,6.4,2.885,12.8,4.038,19.255a12.317,12.317,0,0,1,.274,3.663c-.224,1.745-1.19,3.4-.981,5.156a19.512,19.512,0,0,1,.462,2.466,6.094,6.094,0,0,1-.433,1.846c-1.644,4.781-6.065,15.743-6.014,20.8l1.154-.274c-1.161,6.57-3.88,12.851-5.308,19.4a64.9,64.9,0,0,0-1.341,14.51,53.828,53.828,0,0,1-.115,6.562c-.224,1.94-.721,3.837-1,5.769a52.271,52.271,0,0,0-.346,7.81,79.76,79.76,0,0,0,.721,12.259c1.1,6.923-.829,13.8-1.356,20.791a124.939,124.939,0,0,1-1.659,14.582c-.4,2.034-.894,4.053-1.168,6.108-.808,6.1.368,12.389-.9,18.411-.6,2.82-1.666,5.986-.094,8.394.5.757,1.211,1.349,1.752,2.077a2.639,2.639,0,0,1,.5,2.545c-.31.664-1.031,1.1-1.211,1.8-.288,1.111.873,2.019,1.911,2.5l.3.115a2.676,2.676,0,0,0,.562,2.164,4.587,4.587,0,0,0,2.214,1.154l13.615,4.125c3.036.923,6.339,1.832,9.375,1.082a2.358,2.358,0,0,0,.541,1.168,4.587,4.587,0,0,0,2.214,1.154l13.514,4.1c3.476,1.053,7.291,2.091,10.63.663a6.036,6.036,0,0,0,2.438-1.839,6.433,6.433,0,0,0,.865-5.387,4.391,4.391,0,0,0-1.312-2.409,5.77,5.77,0,0,0-3.144-1.031,6.353,6.353,0,0,1-2.755-.721,1.983,1.983,0,0,1-.627-.656q1.168-1.154,2.264-2.394c-.591-.2-.8-1.053-.858-1.673-.858-9.187,2.6-18.166,3.916-27.3a58.411,58.411,0,0,0,.346-13.832c-.159-1.738-.4-3.469-.469-5.214-.339-9.087,4-17.827,3.851-26.921-.072-4.255,2.163-8.452,3.252-12.57a45.5,45.5,0,0,0,1-11.25l.173-29.755c0-4.024,0-8.142-1.284-11.942a15.143,15.143,0,0,1-.519-6.534c3.671-1.623,7.146-4.024,11.07-3.606,1.046-2.776-.195-12.029-1.175-14.834a63.793,63.793,0,0,1-2.163-34.355c.887-4.1-.332-8.466.656-12.555a7.593,7.593,0,0,1,1.075-2.7,2.885,2.885,0,0,1,2.474-1.305c0-2.5-.05-5.048-.216-7.586a18.031,18.031,0,0,0,4.017-4.623c2.163-3.606,3.4-7.666,4.889-11.589,2.647-6.923,6.26-13.42,9.3-20.192s3.332-14.178,5.769-21.187a15.923,15.923,0,0,1,7.752-8.928c1.442-.721,2.978-1.24,4.024-2.423a6.491,6.491,0,0,0,1.4-3.44,9.094,9.094,0,0,0-2.322-7.673ZM443.109,687.549c.3-.325.584-.649.858-1-.909-.144-2.019-.808-2.041-1.731a9.568,9.568,0,0,1,.591-2.7,10.819,10.819,0,0,0,.2-4.8c-.2-1.118-.577-2.163-.808-3.3a30.851,30.851,0,0,1-.433-3.735,61.789,61.789,0,0,0-2.625-13.24c-1.305-4.176.483-8.4.945-12.75.224-2.062.123-4.19.844-6.13.426-1.154,1.125-2.163,1.551-3.332.988-2.676.4-5.654-.2-8.445,4.269-7.738,5.683-16.969,7.291-25.68q1.356-7.334,2.711-14.661c.4-2.163.836-4.442,2.164-6.187a76.024,76.024,0,0,1,1.644,19.716,29.265,29.265,0,0,0,.072,5.769c.332,2.1,1.2,4.082,1.709,6.144,1.125,4.55.469,9.332.721,14.012.094,1.889.339,3.779.418,5.668.353,8.358-2.445,16.485-5.207,24.382-1.695,4.839-2.07,10.341-2.885,15.411-.764,4.853-1.522,9.714-1.911,14.61-.115,1.493-.209,3.029-.389,4.543a11.9,11.9,0,0,0-1.406-.224,6.352,6.352,0,0,1-2.755-.721A3.21,3.21,0,0,1,443.109,687.549Z" transform="translate(-303.772 -154.81)" fill="url(#linear-gradient-3)"/>
    <path id="Trazado_122" data-name="Trazado 122" d="M484.146,816.919a5.849,5.849,0,0,1,3.144,1.024,4.378,4.378,0,0,1,1.313,2.394,6.375,6.375,0,0,1-.865,5.358,5.987,5.987,0,0,1-2.437,1.817c-3.339,1.442-7.154.4-10.63-.649l-13.615-4.1a4.571,4.571,0,0,1-2.214-1.147,3,3,0,0,1-.058-3.5,6.829,6.829,0,0,1,2.885-2.3c4.24-2.062,9.014-2.539,13.7-2.625,1.731-.036,3.433-.411,4.608.923.62.721.512,1.485,1.442,2.1A6.247,6.247,0,0,0,484.146,816.919Z" transform="translate(-315.257 -274.286)" fill="#3f3d56"/>
    <path id="Trazado_123" data-name="Trazado 123" d="M448.476,806.532a5.77,5.77,0,0,1,3.144,1.017,4.449,4.449,0,0,1,1.313,2.394,6.368,6.368,0,0,1-.865,5.358,6,6,0,0,1-2.437,1.824c-3.339,1.442-7.154.389-10.63-.656l-13.615-4.1a4.515,4.515,0,0,1-2.214-1.147,3,3,0,0,1-.058-3.5,6.785,6.785,0,0,1,2.885-2.3c4.24-2.062,9.007-2.538,13.666-2.625,1.724,0,3.433-.411,4.608.923.62.721.512,1.493,1.442,2.1A6.352,6.352,0,0,0,448.476,806.532Z" transform="translate(-305.31 -271.392)" fill="#3f3d56"/>
    <path id="Trazado_124" data-name="Trazado 124" d="M458.737,602.117a167.655,167.655,0,0,0-24.144-.678,4.741,4.741,0,0,0-1.565.245c-1.774.721-2.048,3.043-2.221,4.947-.678,7.695-4.074,14.87-5.769,22.42a64.014,64.014,0,0,0-1.341,14.423,52.982,52.982,0,0,1-.115,6.49c-.224,1.933-.721,3.815-1,5.769a51.6,51.6,0,0,0-.346,7.759,78.726,78.726,0,0,0,.721,12.166c1.1,6.88-.829,13.7-1.356,20.654a123.576,123.576,0,0,1-1.659,14.488c-.4,2.019-.894,4.024-1.168,6.065-.808,6.065.368,12.317-.9,18.3-.6,2.8-1.666,5.942-.094,8.336.5.757,1.211,1.341,1.752,2.062a2.618,2.618,0,0,1,.5,2.531c-.31.656-1.031,1.089-1.212,1.788-.289,1.1.873,2.012,1.911,2.481a19.923,19.923,0,0,0,23.192-5.733c-.909-.144-2.019-.8-2.041-1.716a9.469,9.469,0,0,1,.591-2.69,10.672,10.672,0,0,0,.2-4.774c-.2-1.1-.577-2.163-.808-3.281a30.43,30.43,0,0,1-.433-3.707,61.014,61.014,0,0,0-2.625-13.154c-1.305-4.147.483-8.344.945-12.671.224-2.041.123-4.161.844-6.086.425-1.147,1.125-2.163,1.55-3.31.988-2.661.4-5.611-.2-8.387,4.269-7.695,5.683-16.86,7.291-25.514l2.711-14.567c.4-2.163.837-4.406,2.164-6.144a75.065,75.065,0,0,1,1.644,19.593,28.852,28.852,0,0,0,.072,5.69c.332,2.084,1.2,4.053,1.709,6.108,1.125,4.514.469,9.267.721,13.918.094,1.875.339,3.75.418,5.632.353,8.3-2.445,16.377-5.207,24.216-1.695,4.81-2.07,10.276-2.885,15.31-.764,4.824-1.522,9.649-1.911,14.517-.353,4.471-.5,9.31-3.289,12.822,2.538,1.651,5.171,3.332,8.142,3.9a15.1,15.1,0,0,0,10.046-1.94,31.73,31.73,0,0,0,7.933-6.75c-.591-.2-.8-1.053-.858-1.666-.858-9.122,2.6-18.029,3.916-27.115a57.7,57.7,0,0,0,.346-13.745c-.159-1.724-.4-3.44-.469-5.171-.339-9.029,4-17.719,3.851-26.747-.072-4.226,2.163-8.4,3.252-12.49a44.807,44.807,0,0,0,1-11.171l.173-29.567c0-4,0-8.091-1.284-11.87-1.587-4.536.224-9.757.5-14.553a60.015,60.015,0,0,1-23.206,2.567Z" transform="translate(-303.744 -214.733)" fill="#3f3d56"/>
    <path id="Trazado_125" data-name="Trazado 125" d="M510.36,459.234A94.285,94.285,0,0,1,521.4,441.8a28.438,28.438,0,0,0,2.452-3.346c1.55-2.683,2.012-5.849,2.993-8.791,2.74-8.25,9.577-14.877,11.243-23.408.606-3.094,2.582-5.769,3.93-8.654.923-1.933,1.933-3.966,3.764-5.048a6.416,6.416,0,0,1,7.579,1.154,8.985,8.985,0,0,1,2.315,7.608,6.353,6.353,0,0,1-1.4,3.418c-1.046,1.175-2.611,1.709-4.024,2.416a15.793,15.793,0,0,0-7.752,8.863c-2.409,6.966-2.712,14.336-5.769,21.05s-6.649,13.168-9.3,20.041c-1.493,3.9-2.7,7.933-4.889,11.538s-5.639,6.627-9.779,7.168a24.562,24.562,0,0,0-1.212-7.673C510.685,465.27,509.048,461.888,510.36,459.234Z" transform="translate(-329.651 -156.793)" fill="#a0616a"/>
    <path id="Trazado_126" data-name="Trazado 126" d="M442.825,463.445a39.987,39.987,0,0,0-2.337-14.985c-.663-1.839-1.478-3.707-1.377-5.661a13.835,13.835,0,0,1,1.738-5.12,129.675,129.675,0,0,0,6.49-17.654l3.606-11.279a18.028,18.028,0,0,0,3.166-2.993,15.966,15.966,0,0,0,3.671-7.832,11.048,11.048,0,0,0-2.026-8.286,4.788,4.788,0,0,0-3.389-2.055,4.363,4.363,0,0,0-3.166,1.442,13.946,13.946,0,0,0-2.712,4.63c-1.183,2.769-2.38,5.654-2.264,8.654.094,2.5,1.031,5.279-.433,7.305-4.8,6.642-8.416,14.279-12.216,21.541a38.37,38.37,0,0,0-2.466,5.4,29.94,29.94,0,0,0-1.291,9.332,124.108,124.108,0,0,0,1.587,17.654c.5,3.663,1.183,7.659,3.959,10.1A59.024,59.024,0,0,1,442.825,463.445Z" transform="translate(-306.769 -155.624)" fill="#a0616a"/>
    <circle id="Elipse_14" data-name="Elipse 14" cx="14.964" cy="14.964" r="14.964" transform="translate(139.445 280.713)" fill="#a0616a"/>
    <path id="Trazado_127" data-name="Trazado 127" d="M461.359,494.072c-.361,2.711-1.81,5.127-3.224,7.464-.858,1.442-1.94,2.978-3.606,3.137a72.114,72.114,0,0,0,13.586,5.466,15.447,15.447,0,0,0,4.969.8,12.136,12.136,0,0,0,4.132-1.06,20.517,20.517,0,0,0,11.639-13.7,27,27,0,0,1-5.553-.426,4.1,4.1,0,0,1-2.726-1.334,4.392,4.392,0,0,1-.562-2.416q-.108-3.743,0-7.486a29.568,29.568,0,0,0-10.875,1.334c-1.442.469-2.885,1.038-4.363,1.406-.909.224-3.411,0-4.082.526C459.679,488.584,461.626,492.233,461.359,494.072Z" transform="translate(-314.22 -182.638)" fill="#a0616a"/>
    <path id="Trazado_128" data-name="Trazado 128" d="M461.436,502.115a9.411,9.411,0,0,0-7.154-8.351c-1.543-.339-3.209-.3-4.594-1.067-2.365-1.32-3.079-4.536-5.344-6.014s-5.5-.656-7.471,1.219-2.978,4.529-3.786,7.125a35.877,35.877,0,0,0-1.94,10.925,4.962,4.962,0,0,0,.317,2,8.417,8.417,0,0,0,1.594,2,8.856,8.856,0,0,1,2.163,7.038,19.931,19.931,0,0,0,.642,7.074c1.442,6.353,2.885,12.714,4.038,19.125a12.172,12.172,0,0,1,.274,3.606c-.224,1.731-1.19,3.382-.981,5.113a19.41,19.41,0,0,1,.462,2.459,5.967,5.967,0,0,1-.433,1.825c-1.644,4.76-6.065,15.649-6.014,20.675,7.68-1.969,19-2.409,26.928-2.437a56.594,56.594,0,0,1,6.541.288c5.214.555,10.55,2.077,15.606.671,4.687-1.305,8.848-5.048,13.7-4.572,1.046-2.762-.195-11.957-1.175-14.74a62.985,62.985,0,0,1-2.163-34.132c.887-4.082-.332-8.409.656-12.469a7.473,7.473,0,0,1,1.075-2.683,2.884,2.884,0,0,1,2.474-1.3,91.872,91.872,0,0,0-1.8-19.42c-.483-2.272-1.486-4.954-3.772-5.344-2.062-.346-3.8,1.392-5.452,2.675a14.9,14.9,0,0,1-5.769,2.712,5.431,5.431,0,0,0-2.365.858c-1,.822-1.132,2.308-1.94,3.31-1.442,1.8-4.666,1.637-5.69,3.707a12.985,12.985,0,0,0-.548,1.9,6.937,6.937,0,0,1-2.373,3.065A13.384,13.384,0,0,1,461.436,502.115Z" transform="translate(-307.698 -181.587)" fill="#ffae31"/>
    <path id="Trazado_129" data-name="Trazado 129" d="M479.5,450.537a2.736,2.736,0,0,0-.584-2.827c-.4-.31-.909-.425-1.334-.721a5.768,5.768,0,0,1-1.442-1.825,7.832,7.832,0,0,0-9.815-2.474c-2.6,1.363-4.183,4.089-6.49,5.935-1.183.952-2.546,1.659-3.728,2.6a15.389,15.389,0,0,0-4.824,7.8,44.394,44.394,0,0,0-1.305,9.209,8.272,8.272,0,0,0,.108,2.8,7.349,7.349,0,0,0,1.06,2.127,23.994,23.994,0,0,0,9.447,8.74,14.652,14.652,0,0,0,12.591.224,2.243,2.243,0,0,0,.966-.779,2.711,2.711,0,0,0,.144-1.666,11.43,11.43,0,0,1,1.262-6.375c.721-1.442,1.8-2.683,2.38-4.183a14.854,14.854,0,0,0,.678-5.178C478.667,459.428,478.357,454.907,479.5,450.537Z" transform="translate(-312.929 -170.769)" fill="#2d293d"/>
    <rect id="Rectángulo_90" data-name="Rectángulo 90" width="36.843" height="36.843" transform="translate(173.498 187.728)" fill="#ffae31"/>
    <path id="Trazado_130" data-name="Trazado 130" d="M528.927,366.338a4.839,4.839,0,0,1-2.5,2.264,6.194,6.194,0,0,1-1.983.375,5.6,5.6,0,0,1-2.163-.267A4.969,4.969,0,0,1,520,366.886a11.534,11.534,0,0,1-1.327-2.654,2.942,2.942,0,0,1-.267-1.5,2.163,2.163,0,0,0,1.442-.815,1.824,1.824,0,0,0,.036-1.442c-.043-.144-.086-.281-.137-.411-.108-.317-.483-.916-.224-1.183s.865-.26,1.1-.368a10.41,10.41,0,0,1,2.243-1,5.452,5.452,0,0,1,2.127.137.721.721,0,0,1,.267.1.62.62,0,0,1,.195.288c.2.49.317,1.031.476,1.536a3.167,3.167,0,0,0,.793,1.406,3.978,3.978,0,0,0,1.1.663l.966.44a1.377,1.377,0,0,1,.454.3,1.2,1.2,0,0,1,.216.591A5.531,5.531,0,0,1,528.927,366.338Z" transform="translate(-332.029 -147.226)" fill="#a0616a"/>
    <path id="Trazado_131" data-name="Trazado 131" d="M526.326,359.6a5.012,5.012,0,0,1-6.05.9c-.043-.144-.086-.281-.137-.411-.108-.317-.483-.916-.224-1.183s.865-.26,1.1-.368a10.4,10.4,0,0,1,2.243-1,5.452,5.452,0,0,1,2.127.137.722.722,0,0,1,.267.1.621.621,0,0,1,.195.288C526.052,358.58,526.168,359.1,526.326,359.6Z" transform="translate(-332.427 -147.234)" opacity="0.1"/>
    <circle id="Elipse_15" data-name="Elipse 15" cx="5.005" cy="5.005" r="5.005" transform="translate(185.288 203.68)" fill="#a0616a"/>
    <path id="Trazado_132" data-name="Trazado 132" d="M534.971,373.411H511.419c-.721-1.608-1.37-3.224-2.1-4.832h0a3.354,3.354,0,0,1,.425-1.082,1.176,1.176,0,0,1,.966-.541c.209,0,.447.079.6-.072s.1-.274.209-.375a.88.88,0,0,1,.57-.086,1.305,1.305,0,0,0,1.111-.555,1.774,1.774,0,0,1,.281-.368,1.609,1.609,0,0,1,.606-.159c.584-.13.93-.721,1.37-1.089a.822.822,0,0,1,.865-.238.535.535,0,0,1,.18.151,1.631,1.631,0,0,1,.238.6,5.351,5.351,0,0,0,1.882,3.036,4.269,4.269,0,0,0,6.447-1.608,8.394,8.394,0,0,0,.591-2.733v-.123a2.062,2.062,0,0,1,1.716.339,9.683,9.683,0,0,0,1.529.959c.642.252,1.442.252,1.882.721.188.188.317.447.555.563a1.662,1.662,0,0,0,.462.108,2.733,2.733,0,0,1,1.81,1.587,12.35,12.35,0,0,1,1.01,3.649Z" transform="translate(-329.498 -148.847)" fill="#f86d70"/>
    <path id="Trazado_133" data-name="Trazado 133" d="M517.558,343.691a3.785,3.785,0,0,0-.873,1.01,4.968,4.968,0,0,1-1.745,1.716,2.164,2.164,0,0,0-.8.5,1.333,1.333,0,0,0-.209.562,10.545,10.545,0,0,0-.224,2.127,2.272,2.272,0,0,0,.173,1.053c.144.3.418.563.469.894a2.613,2.613,0,0,1-.087.779.678.678,0,0,0,.267.721,1.834,1.834,0,0,0,.4.094c.721.159.966,1.01,1.074,1.709.245,0,.353-.3.411-.526l.721-3.353c.086-.361.216-.786.584-.909a1.826,1.826,0,0,1,.764,0c1,.087,1.832-.685,2.805-.9a3.823,3.823,0,0,1,.952-.058c.764,0,1.659.353,1.825,1.067a.359.359,0,0,0,.151.317.606.606,0,0,0,.339,0c.483-.05.772.5.916.945l.5,1.637c.079.245.209.541.476.57a.5.5,0,0,0,.5-.44,2,2,0,0,0-.1-.721,7.806,7.806,0,0,1,.353-3.238,3.547,3.547,0,0,0-.49-3.137c-.274-.3-.635-.519-.887-.837s-.368-.656-.613-.952a6.3,6.3,0,0,0-3.5-1.529,7.168,7.168,0,0,0-4.161.9Z" transform="translate(-330.72 -143.126)" fill="#3f3d56"/>
    <g id="Grupo_23" data-name="Grupo 23" transform="translate(182.989 204.509)" opacity="0.1">
      <path id="Trazado_134" data-name="Trazado 134" d="M526.706,355.01c-.267,0-.4-.325-.476-.57l-.5-1.637c-.144-.447-.433-1-.916-.952a.606.606,0,0,1-.339,0c-.108-.058-.122-.195-.151-.317-.166-.721-1.06-1.031-1.825-1.067a3.514,3.514,0,0,0-.952.065c-.974.209-1.81.981-2.805.894a2.1,2.1,0,0,0-.764,0c-.368.13-.5.548-.584.916-.252,1.118-.5,2.236-.721,3.346-.058.231-.166.512-.411.526-.108-.721-.353-1.55-1.074-1.709a1.5,1.5,0,0,1-.4-.094.455.455,0,0,1-.209-.238,2.352,2.352,0,0,1-.058.31.678.678,0,0,0,.267.721,1.837,1.837,0,0,0,.4.094c.721.159.966,1.01,1.074,1.709.245,0,.353-.3.411-.526.252-1.118.5-2.236.721-3.353.086-.361.216-.786.584-.909a1.823,1.823,0,0,1,.764,0c1,.086,1.832-.685,2.805-.9a3.822,3.822,0,0,1,.952-.058c.764,0,1.659.353,1.825,1.067a.36.36,0,0,0,.151.317.606.606,0,0,0,.339,0c.483-.051.772.5.916.945l.5,1.637c.079.245.209.541.476.57a.5.5,0,0,0,.5-.44,1.441,1.441,0,0,0-.072-.577A.447.447,0,0,1,526.706,355.01Z" transform="translate(-513.929 -349.782)"/>
      <path id="Trazado_135" data-name="Trazado 135" d="M514.352,353.293c-.05-.332-.325-.591-.469-.894a1.829,1.829,0,0,1-.166-.649v.361a2.272,2.272,0,0,0,.173,1.053c.115.245.317.462.418.721A1.607,1.607,0,0,0,514.352,353.293Z" transform="translate(-513.711 -350.142)"/>
      <path id="Trazado_136" data-name="Trazado 136" d="M532.311,350.357a9.375,9.375,0,0,0-.411,2.885,17.531,17.531,0,0,1,.411-2.106,5.522,5.522,0,0,0,.122-1.615A6.533,6.533,0,0,1,532.311,350.357Z" transform="translate(-518.783 -349.52)"/>
    </g>
    <path id="Trazado_137" data-name="Trazado 137" d="M512.668,375.227H507.05a17.669,17.669,0,0,1,1.32-4.385,1,1,0,0,1,.238-.382.343.343,0,0,1,.079-.065c.166-.13.4-.18.577-.3s.2-.252.368-.3a4.984,4.984,0,0,1,1.832.3,1.833,1.833,0,0,1,.483.123,1.63,1.63,0,0,1,.764.938C513.187,372.443,512.826,373.842,512.668,375.227Z" transform="translate(-328.865 -150.663)" fill="#f86d70"/>
  </g>
</svg>
