<svg xmlns="http://www.w3.org/2000/svg" width="352.156" height="256.204" viewBox="0 0 352.156 256.204">
  <g id="SearchIlustration" transform="translate(-726 -283.796)">
    <g id="undraw_QA_engineers_dg5p_1_" data-name="undraw_QA_engineers_dg5p (1)" transform="translate(725.99 283.797)">
      <path id="Trazado_4" data-name="Trazado 4" d="M410.052,313.1c-8.722,18-26.443,30.036-44.8,37.973a165.3,165.3,0,0,1-46.124,12.309q-4.565.542-9.159.841a177.636,177.636,0,0,1-23.5-.026q-7.061-.47-14.072-1.5A177.485,177.485,0,0,1,225.34,349q-6.483-2.92-12.7-6.374a162.511,162.511,0,0,1-19.855-12.985q-2.089-1.6-4.125-3.261l-.558-.457c-1.067-.88-2.125-1.78-3.2-2.653a46.5,46.5,0,0,0-5.668-4.066c-.135-.079-.269-.158-.407-.233-.368-.213-.742-.414-1.123-.6a25.72,25.72,0,0,0-2.41-1.064,31.572,31.572,0,0,0-11.974-1.882c-.683,0-1.366.046-2.053.092h0c-.959.066-1.921.164-2.88.289l-.355.049a65.274,65.274,0,0,0-9.041,1.941c-4.578,1.314-9.074,2.956-13.6,4.437h0c-1.921.634-3.846,1.238-5.786,1.78l-.427.118a63.337,63.337,0,0,1-8.41,1.76,46.863,46.863,0,0,1-19.248-1.55l-.217-.062-.4-.118-.548-.171q-1.379-.434-2.736-.949l-.548-.21q-1.314-.506-2.571-1.087l-.548-.25q-1.314-.611-2.571-1.291c-.3-.158-.6-.328-.9-.489q-1.34-.749-2.627-1.57-1.366-.87-2.673-1.816-.6-.434-1.2-.89a52.991,52.991,0,0,1-6.361-5.737c-.108-.108-.21-.22-.312-.328-.522-.565-1.034-1.14-1.53-1.727-.184-.217-.368-.434-.548-.657q-.883-1.077-1.7-2.2c-.082-.108-.161-.22-.24-.328a47.483,47.483,0,0,1-5.54-10.016c-.046-.108-.089-.22-.128-.328q-.657-1.691-1.2-3.438c-.148-.486-.289-.985-.414-1.471-.043-.145-.082-.292-.118-.437-1.813-7.136-2.02-14.555-2.02-21.931v-2.578c.053-11.931.236-24.066,2-35.832a1.5,1.5,0,0,1,.036-.243,111.906,111.906,0,0,1,2.4-11.763,86.78,86.78,0,0,1,4.043-11.921c4.049-9.524,9.938-18.19,16.476-26.223a147.825,147.825,0,0,1,26.972-25.944q2.167-1.586,4.394-3.08l.686-.45c.24-.161.479-.328.719-.47h0c.493-.328.985-.637,1.484-.949l.558-.348,1.064-.657.328-.187.568-.328.562-.328q.985-.581,1.993-1.136,4.305-2.4,8.814-4.387,1.33-.588,2.676-1.133a94.394,94.394,0,0,1,12.529-4.108q2.365-.6,4.759-1.051,2.824-.545,5.678-.9a90.109,90.109,0,0,1,9.123-.68,93.376,93.376,0,0,1,59.931,19.842c6.7,5.333,12.719,11.649,20.243,15.737,6.568,3.56,14.256,5.034,21.291,2.233,5.813-2.315,9.6-3.465,16.125-3.113a135.159,135.159,0,0,1,39.51,8.263c.512.187,1.025.381,1.534.575,33.074,12.66,61.51,37.8,76.282,70.1q.585,1.281,1.14,2.581C416.6,268.921,419.776,293.043,410.052,313.1Z" transform="translate(-63.85 -108.397)" fill="#ffb677" opacity="0.1"/>
      <path id="Trazado_5" data-name="Trazado 5" d="M129.574,309.523V434.041l-.427.118a63.342,63.342,0,0,1-8.41,1.76,46.864,46.864,0,0,1-19.248-1.55l-.217-.062-.4-.118-.548-.171q-1.379-.434-2.736-.949l-.548-.21q-1.314-.506-2.571-1.087l-.548-.25q-1.314-.611-2.571-1.291c-.3-.158-.6-.328-.9-.489q-1.34-.749-2.627-1.57-1.366-.87-2.673-1.816-.6-.434-1.2-.89a53,53,0,0,1-6.361-5.737c-.108-.108-.21-.22-.312-.328-.522-.565-1.034-1.14-1.53-1.727-.184-.217-.368-.433-.548-.657q-.883-1.077-1.7-2.2c-.082-.108-.161-.22-.24-.328a47.482,47.482,0,0,1-5.54-10.016c-.046-.108-.089-.22-.128-.328q-.657-1.691-1.2-3.438c-.148-.486-.289-.985-.414-1.471-.043-.145-.082-.292-.118-.437-1.813-7.136-2.02-14.555-2.02-21.931v-2.578c.053-11.931.236-24.065,2-35.832a1.5,1.5,0,0,1,.036-.243,111.91,111.91,0,0,1,2.4-11.763H101.81V309.523H108.5V295.93h14.391v13.593Z" transform="translate(-63.83 -218.427)" fill="#ffb677" opacity="0.1"/>
      <path id="Trazado_6" data-name="Trazado 6" d="M637.91,401.016c-8.722,18-26.443,30.036-44.8,37.973A165.3,165.3,0,0,1,546.985,451.3q-4.565.542-9.159.841a177.652,177.652,0,0,1-23.5-.026q-7.061-.47-14.072-1.5a177.485,177.485,0,0,1-47.051-13.7q-6.483-2.92-12.7-6.374a162.512,162.512,0,0,1-19.855-12.985q-2.089-1.6-4.125-3.261l-.558-.457c-1.067-.88-2.125-1.78-3.2-2.653a46.5,46.5,0,0,0-5.668-4.066c-.135-.079-.269-.158-.407-.233-.368-.213-.742-.414-1.123-.6a25.733,25.733,0,0,0-2.41-1.064V354.274H464.1v11.34h26.749V282.665h31.484v33.169H537.9V296.2h12.867V275.217h5.911V263c.512.187,1.025.381,1.534.575v11.642h5.754v20.992h12.857v19.639h18.959v74.821H625.92V336.254h9.711C644.455,356.835,647.634,380.957,637.91,401.016Z" transform="translate(-291.709 -196.311)" fill="#ffb677" opacity="0.1"/>
      <rect id="Rectángulo_12" data-name="Rectángulo 12" width="14.072" height="14.072" transform="translate(208.547 98.837)" fill="#ffb677" opacity="0.1"/>
      <rect id="Rectángulo_13" data-name="Rectángulo 13" width="14.072" height="14.072" transform="translate(208.547 128.006)" fill="#ffb677" opacity="0.1"/>
      <rect id="Rectángulo_14" data-name="Rectángulo 14" width="14.072" height="14.072" transform="translate(208.547 157.178)" fill="#ffb677" opacity="0.1"/>
      <rect id="Rectángulo_15" data-name="Rectángulo 15" width="14.072" height="14.072" transform="translate(208.547 186.35)" fill="#ffb677" opacity="0.1"/>
      <rect id="Rectángulo_16" data-name="Rectángulo 16" width="14.072" height="14.072" transform="translate(208.547 215.519)" fill="#ffb677" opacity="0.1"/>
      <path id="Trazado_7" data-name="Trazado 7" d="M712.912,805v11.113q-7.061-.47-14.072-1.5V805Z" transform="translate(-490.293 -560.315)" fill="#ffb677" opacity="0.1"/>
      <rect id="Rectángulo_17" data-name="Rectángulo 17" width="49.257" height="6.374" transform="translate(116.081 176.15)" fill="#ffb677" opacity="0.1"/>
      <rect id="Rectángulo_18" data-name="Rectángulo 18" width="49.257" height="6.374" transform="translate(116.081 195.509)" fill="#ffb677" opacity="0.1"/>
      <path id="Trazado_8" data-name="Trazado 8" d="M476.712,714.21v6.371h-36.4q-2.089-1.6-4.125-3.261l-.558-.456c-1.067-.88-2.125-1.78-3.2-2.654Z" transform="translate(-311.373 -499.341)" fill="#ffb677" opacity="0.1"/>
      <path id="Trazado_9" data-name="Trazado 9" d="M533.435,773.15v6.374h-3.842q-6.483-2.92-12.7-6.374Z" transform="translate(-368.096 -538.925)" fill="#ffb677" opacity="0.1"/>
      <rect id="Rectángulo_19" data-name="Rectángulo 19" width="9.159" height="9.159" transform="translate(246.123 136.941)" fill="#ffb677" opacity="0.1"/>
      <rect id="Rectángulo_20" data-name="Rectángulo 20" width="9.159" height="9.159" transform="translate(47.767 94.255)" fill="#ffb677" opacity="0.1"/>
      <rect id="Rectángulo_21" data-name="Rectángulo 21" width="9.159" height="9.159" transform="translate(47.767 115.536)" fill="#ffb677" opacity="0.1"/>
      <rect id="Rectángulo_22" data-name="Rectángulo 22" width="9.159" height="9.159" transform="translate(47.767 136.813)" fill="#ffb677" opacity="0.1"/>
      <rect id="Rectángulo_23" data-name="Rectángulo 23" width="9.159" height="9.159" transform="translate(47.767 158.094)" fill="#ffb677" opacity="0.1"/>
      <rect id="Rectángulo_24" data-name="Rectángulo 24" width="9.159" height="9.159" transform="translate(47.767 179.375)" fill="#ffb677" opacity="0.1"/>
      <rect id="Rectángulo_25" data-name="Rectángulo 25" width="9.159" height="9.159" transform="translate(47.767 200.652)" fill="#ffb677" opacity="0.1"/>
      <rect id="Rectángulo_26" data-name="Rectángulo 26" width="9.159" height="9.159" transform="translate(281.095 136.941)" fill="#ffb677" opacity="0.1"/>
      <rect id="Rectángulo_27" data-name="Rectángulo 27" width="9.159" height="9.159" transform="translate(246.123 159.536)" fill="#ffb677" opacity="0.1"/>
      <rect id="Rectángulo_28" data-name="Rectángulo 28" width="9.159" height="9.159" transform="translate(281.095 159.536)" fill="#ffb677" opacity="0.1"/>
      <rect id="Rectángulo_29" data-name="Rectángulo 29" width="9.159" height="9.159" transform="translate(246.123 182.133)" fill="#ffb677" opacity="0.1"/>
      <rect id="Rectángulo_30" data-name="Rectángulo 30" width="9.159" height="9.159" transform="translate(281.095 182.133)" fill="#ffb677" opacity="0.1"/>
      <rect id="Rectángulo_31" data-name="Rectángulo 31" width="9.159" height="9.159" transform="translate(246.123 204.731)" fill="#ffb677" opacity="0.1"/>
      <rect id="Rectángulo_32" data-name="Rectángulo 32" width="9.159" height="9.159" transform="translate(281.095 204.731)" fill="#ffb677" opacity="0.1"/>
      <rect id="Rectángulo_33" data-name="Rectángulo 33" width="9.159" height="9.159" transform="translate(246.123 227.325)" fill="#ffb677" opacity="0.1"/>
      <rect id="Rectángulo_34" data-name="Rectángulo 34" width="9.159" height="9.159" transform="translate(281.095 227.325)" fill="#ffb677" opacity="0.1"/>
      <path id="Trazado_10" data-name="Trazado 10" d="M749.43,766.918V761.01h9.159v5.067Z" transform="translate(-503.307 -511.091)" fill="#ffb677" opacity="0.1"/>
      <path id="Trazado_11" data-name="Trazado 11" d="M69.93,424.68v5.254h35.031V424.68Zm3.12,4.926H70.478v-4.6H73.05Zm3.12,0H73.6v-4.6H76.17Zm3.12,0H76.718v-4.6H79.29Zm3.12,0H79.838v-4.6h2.571Zm3.12,0H82.958v-4.6h2.571Zm3.12,0H86.078v-4.6h2.571Zm3.12,0H89.2v-4.6h2.571Zm3.12,0H92.317v-4.6h2.571Zm3.12,0H95.437v-4.6h2.571Zm3.12,0H98.557v-4.6h2.571Zm3.284,0h-2.736v-4.6h2.736Z" transform="translate(-67.92 -304.894)" fill="#ffb677" opacity="0.1"/>
      <path id="Trazado_12" data-name="Trazado 12" d="M69.93,471.14v5.238h35.031V471.14Zm3.12,4.91H70.478v-4.581H73.05Zm3.12,0H73.6v-4.581H76.17Zm3.12,0H76.718v-4.581H79.29Zm3.12,0H79.838v-4.581h2.571Zm3.12,0H82.958v-4.581h2.571Zm3.12,0H86.078v-4.581h2.571Zm3.12,0H89.2v-4.581h2.571Zm3.12,0H92.317v-4.581h2.571Zm3.12,0H95.437v-4.581h2.571Zm3.12,0H98.557v-4.581h2.571Zm3.284,0h-2.736v-4.581h2.736Z" transform="translate(-67.92 -336.097)" fill="#ffb677" opacity="0.1"/>
      <path id="Trazado_13" data-name="Trazado 13" d="M69.93,517.59v5.238h35.031V517.59Zm3.12,4.91H70.478v-4.581H73.05Zm3.12,0H73.6v-4.581H76.17Zm3.12,0H76.718v-4.581H79.29Zm3.12,0H79.838v-4.581h2.571Zm3.12,0H82.958v-4.581h2.571Zm3.12,0H86.078v-4.581h2.571Zm3.12,0H89.2v-4.581h2.571Zm3.12,0H92.317v-4.581h2.571Zm3.12,0H95.437v-4.581h2.571Zm3.12,0H98.557v-4.581h2.571Zm3.284,0h-2.736v-4.581h2.736Z" transform="translate(-67.92 -367.292)" fill="#ffb677" opacity="0.1"/>
      <path id="Trazado_14" data-name="Trazado 14" d="M69.93,564v5.255h35.031V564Zm3.12,4.926H70.478v-4.6H73.05Zm3.12,0H73.6v-4.6H76.17Zm3.12,0H76.718v-4.6H79.29Zm3.12,0H79.838v-4.6h2.571Zm3.12,0H82.958v-4.6h2.571Zm3.12,0H86.078v-4.6h2.571Zm3.12,0H89.2v-4.6h2.571Zm3.12,0H92.317v-4.6h2.571Zm3.12,0H95.437v-4.6h2.571Zm3.12,0H98.557v-4.6h2.571Zm3.284,0h-2.736v-4.6h2.736Z" transform="translate(-67.92 -398.461)" fill="#ffb677" opacity="0.1"/>
      <path id="Trazado_15" data-name="Trazado 15" d="M70.34,610.49c.125.493.266.985.414,1.471v-1.143h2.571v4.6H71.952c.039.108.082.22.128.328h33.169V610.49Zm6.105,4.926H73.874v-4.6h2.571Zm3.12,0H76.993v-4.6h2.571Zm3.12,0H80.113v-4.6h2.571Zm3.12,0H83.233v-4.6H85.8Zm3.12,0H86.353v-4.6h2.571Zm3.12,0H89.473v-4.6h2.571Zm3.12,0H92.593v-4.6h2.571Zm3.12,0H95.713v-4.6h2.571Zm3.12,0H98.832v-4.6H101.4Zm3.284,0h-2.736v-4.6h2.736Z" transform="translate(-68.195 -429.683)" fill="#ffb677" opacity="0.1"/>
      <path id="Trazado_16" data-name="Trazado 16" d="M92.51,656.94c.079.108.158.22.24.328h1.7v2.2c.181.22.365.437.548.657v-2.857h2.571v4.6H96.533c.1.108.2.22.312.328h23.281v-5.255Zm8.184,4.926H98.122v-4.6h2.571Zm3.12,0h-2.571v-4.6h2.571Zm3.12,0h-2.571v-4.6h2.571Zm3.12,0h-2.571v-4.6h2.571Zm3.12,0H110.6v-4.6h2.571Zm3.12,0h-2.571v-4.6h2.571Zm3.284,0h-2.736v-4.6h2.736Z" transform="translate(-83.085 -460.879)" fill="#ffb677" opacity="0.1"/>
      <path id="Trazado_17" data-name="Trazado 17" d="M144.87,703.39c.3.167.594.328.9.489v-.161h2.571v1.452l.548.25v-1.7h2.571v2.788l.548.21v-3h2.736v3.941l.548.171v-4.44Z" transform="translate(-118.249 -492.075)" fill="#ffb677" opacity="0.1"/>
      <path id="Trazado_18" data-name="Trazado 18" d="M459.529,286.149s-7.829-.473-6.9,5.011a1.34,1.34,0,0,0,.7,1.412s0-.407.8-.269a3.663,3.663,0,0,0,.851.039,1.77,1.77,0,0,0,1.041-.427h0s2.2-.91,3.057-4.506c0,0,.631-.785.608-.985l-1.314.565a2.364,2.364,0,0,1,.1,1.744s-.043-1.708-.3-1.668c-.049,0-.686.328-.686.328a3.9,3.9,0,0,1,.19,2.867s.223-2.043-.43-2.745l-.952.548a4.094,4.094,0,0,1,.292,3.113s.161-2.145-.486-2.979l-.844.657a3.991,3.991,0,0,1,.328,2.851s-.069-2.5-.516-2.69a5.065,5.065,0,0,0-.851.92s.585,1.225.223,1.872c0,0-.223-1.662-.407-1.672a5.534,5.534,0,0,0-.808,1.859,4,4,0,0,1,.63-1.97,2.207,2.207,0,0,0-1.123.581s.115-.778,1.314-.847a5.125,5.125,0,0,1,.772-.887,4.839,4.839,0,0,0-1.9.22,2.139,2.139,0,0,1,2.122-.4l.831-.68a6.844,6.844,0,0,0-2.22.023,2.672,2.672,0,0,1,2.443-.177l.906-.542a8.268,8.268,0,0,0-2.122-.184,3.254,3.254,0,0,1,2.388.039l.657-.292s-.985-.19-1.258-.22-.3-.108-.3-.108a3.376,3.376,0,0,1,1.829.2A8.268,8.268,0,0,0,459.529,286.149Z" transform="translate(-324.889 -211.851)" fill="#ffb677" opacity="0.1"/>
      <path id="Trazado_19" data-name="Trazado 19" d="M409.884,367.306s-2.676,7.369,2.847,8.043a1.337,1.337,0,0,0,1.547-.266s-.384-.128-.03-.847a3.738,3.738,0,0,0,.282-.8,1.776,1.776,0,0,0-.118-1.12h0s-.246-2.368-3.451-4.21c0,0-.571-.831-.772-.864l.164,1.429a2.367,2.367,0,0,1,1.7.4s-1.642-.443-1.685-.187c0,.049.122.752.122.752a3.888,3.888,0,0,1,2.8.631s-1.9-.795-2.755-.365l.256,1.044a4.114,4.114,0,0,1,3.067.6s-2.01-.759-3-.378l.391.985a4.074,4.074,0,0,1,2.828.489s-2.417-.657-2.723-.269A5.17,5.17,0,0,0,412,373.45s1.343-.21,1.859.328c0,0-1.658-.259-1.718-.089A5.662,5.662,0,0,0,413.694,375a4.019,4.019,0,0,1-1.7-1.166,2.206,2.206,0,0,0,.24,1.245s-.716-.328-.443-1.494a5.027,5.027,0,0,1-.631-.985,4.763,4.763,0,0,0-.328,1.888,2.141,2.141,0,0,1,.217-2.148l-.414-.985a6.647,6.647,0,0,0-.611,2.138,2.707,2.707,0,0,1,.525-2.4l-.259-1.021a8.188,8.188,0,0,0-.778,1.97,3.244,3.244,0,0,1,.713-2.279l-.1-.7s-.46.88-.568,1.146-.19.256-.19.256a3.376,3.376,0,0,1,.713-1.7A8.292,8.292,0,0,0,409.884,367.306Z" transform="translate(-295.796 -266.318)" fill="#ffb677" opacity="0.1"/>
      <path id="Trazado_20" data-name="Trazado 20" d="M567.917,348.379s-2.673,7.383,2.847,8.039a1.34,1.34,0,0,0,1.55-.269s-.387-.128-.03-.844a3.514,3.514,0,0,0,.279-.8,1.777,1.777,0,0,0-.115-1.12h0s-.246-2.368-3.452-4.21c0,0-.575-.828-.775-.86l.168,1.425a2.376,2.376,0,0,1,1.7.4s-1.642-.443-1.688-.19c0,.053.121.752.121.752a3.916,3.916,0,0,1,2.8.631s-1.9-.791-2.759-.365l.259,1.048a4.1,4.1,0,0,1,3.067.6s-2.013-.762-3-.381l.391.985a4.074,4.074,0,0,1,2.828.489s-2.414-.657-2.722-.266a5.066,5.066,0,0,0,.657,1.074s1.34-.213,1.859.328c0,0-1.658-.259-1.718-.085a5.688,5.688,0,0,0,1.55,1.314,3.984,3.984,0,0,1-1.7-1.166,2.224,2.224,0,0,0,.236,1.245s-.713-.328-.44-1.491a5.289,5.289,0,0,1-.634-.985,4.843,4.843,0,0,0-.328,1.888,2.139,2.139,0,0,1,.217-2.148l-.414-.985a6.649,6.649,0,0,0-.611,2.135,2.7,2.7,0,0,1,.525-2.394l-.263-1.025a8.186,8.186,0,0,0-.778,1.97,3.259,3.259,0,0,1,.716-2.279l-.1-.7s-.46.88-.571,1.146-.19.256-.19.256a3.4,3.4,0,0,1,.716-1.7A8.073,8.073,0,0,0,567.917,348.379Z" transform="translate(-401.931 -253.605)" fill="#ffb677" opacity="0.1"/>
      <path id="Trazado_21" data-name="Trazado 21" d="M342.014,531.872s-2.676,7.373,2.847,8.046a1.333,1.333,0,0,0,1.547-.269s-.384-.128-.03-.844a3.537,3.537,0,0,0,.282-.8,1.753,1.753,0,0,0-.118-1.12h0s-.246-2.368-3.452-4.207c0,0-.571-.831-.772-.864l.164,1.425a2.375,2.375,0,0,1,1.7.4s-1.642-.443-1.685-.19c0,.053.122.752.122.752a3.906,3.906,0,0,1,2.8.631s-1.9-.791-2.755-.365l.256,1.048a4.1,4.1,0,0,1,3.067.6s-2.01-.762-3-.381l.391.985a4.074,4.074,0,0,1,2.828.489s-2.414-.657-2.722-.266a5.17,5.17,0,0,0,.637,1.074s1.343-.214,1.862.328c0,0-1.662-.259-1.721-.085a5.72,5.72,0,0,0,1.553,1.314,4,4,0,0,1-1.7-1.163,2.2,2.2,0,0,0,.24,1.241s-.716-.328-.443-1.491a5.3,5.3,0,0,1-.631-.985,4.778,4.778,0,0,0-.328,1.888,2.139,2.139,0,0,1,.217-2.148l-.414-.985a6.582,6.582,0,0,0-.608,2.135,2.7,2.7,0,0,1,.525-2.394l-.263-1.021a8.124,8.124,0,0,0-.778,1.97,3.242,3.242,0,0,1,.713-2.279l-.1-.706s-.46.88-.568,1.146-.19.256-.19.256a3.363,3.363,0,0,1,.716-1.7A8.375,8.375,0,0,0,342.014,531.872Z" transform="translate(-250.215 -376.842)" fill="#ffb677" opacity="0.1"/>
      <path id="Trazado_22" data-name="Trazado 22" d="M309.677,320.276s-2.673,7.369,2.847,8.043a1.343,1.343,0,0,0,1.55-.266s-.388-.128-.03-.847a3.682,3.682,0,0,0,.279-.8,1.767,1.767,0,0,0-.115-1.117h0s-.246-2.368-3.455-4.21c0,0-.571-.831-.772-.864l.168,1.429a2.357,2.357,0,0,1,1.7.4s-1.642-.443-1.685-.187c0,.049.122.752.122.752a3.9,3.9,0,0,1,2.8.63s-1.9-.795-2.759-.365l.256,1.044a4.106,4.106,0,0,1,3.071.6s-2.013-.762-3-.378l.391.985a4.063,4.063,0,0,1,2.828.493s-2.414-.657-2.722-.269a5.17,5.17,0,0,0,.637,1.074s1.343-.21,1.862.328c0,0-1.658-.259-1.718-.089a5.629,5.629,0,0,0,1.55,1.314,4.039,4.039,0,0,1-1.7-1.166,2.207,2.207,0,0,0,.24,1.245s-.716-.328-.44-1.494a5.181,5.181,0,0,1-.634-.985,4.827,4.827,0,0,0-.328,1.888,2.131,2.131,0,0,1,.217-2.148l-.417-.985a6.581,6.581,0,0,0-.608,2.138,2.707,2.707,0,0,1,.525-2.4l-.263-1.021a8.185,8.185,0,0,0-.778,1.97,3.265,3.265,0,0,1,.713-2.279l-.092-.7s-.463.88-.571,1.143-.19.259-.19.259a3.363,3.363,0,0,1,.716-1.7A8.034,8.034,0,0,0,309.677,320.276Z" transform="translate(-228.498 -234.733)" fill="#ffb677" opacity="0.1"/>
      <path id="Trazado_23" data-name="Trazado 23" d="M371.44,442.11s2.066,7.553,6.965,4.926a1.337,1.337,0,0,0,1.11-1.11s-.388.118-.509-.673a3.611,3.611,0,0,0-.236-.818,1.737,1.737,0,0,0-.739-.847h0s-1.566-1.793-5.254-1.452c0,0-.946-.345-1.13-.256l.959,1.067a2.4,2.4,0,0,1,1.622-.657s-1.606.591-1.488.818c.026.046.532.545.532.545a3.879,3.879,0,0,1,2.654-1.1s-2.007.447-2.46,1.294l.811.706a4.119,4.119,0,0,1,2.857-1.278s-2.085.539-2.67,1.419l.893.588a3.972,3.972,0,0,1,2.594-1.228s-2.345.864-2.381,1.35a5.121,5.121,0,0,0,1.143.509s.985-.946,1.7-.811c0,0-1.507.745-1.455.92a5.844,5.844,0,0,0,2.02.171,4.007,4.007,0,0,1-2.062.033,2.187,2.187,0,0,0,.913.877s-.775.141-1.222-.966a5.206,5.206,0,0,1-1.09-.443,4.855,4.855,0,0,0,.821,1.734,2.142,2.142,0,0,1-1.061-1.882l-.91-.568a6.883,6.883,0,0,0,.732,2.1,2.7,2.7,0,0,1-.952-2.259l-.8-.683a8.211,8.211,0,0,0,.506,2.069,3.292,3.292,0,0,1-.729-2.273l-.483-.522s.131.985.194,1.264,0,.328,0,.328a3.373,3.373,0,0,1-.394-1.8A8.208,8.208,0,0,0,371.44,442.11Z" transform="translate(-270.413 -316.436)" fill="#ffb677" opacity="0.1"/>
      <path id="Trazado_24" data-name="Trazado 24" d="M542.08,462.684s2.066,7.553,6.962,4.926a1.333,1.333,0,0,0,1.113-1.11s-.391.118-.512-.657a3.45,3.45,0,0,0-.233-.818,1.76,1.76,0,0,0-.742-.847h0s-1.567-1.793-5.255-1.448c0,0-.946-.348-1.126-.259l.956,1.067a2.4,2.4,0,0,1,1.622-.657s-1.606.591-1.484.818c.023.046.532.545.532.545a3.879,3.879,0,0,1,2.654-1.1s-2.01.447-2.463,1.294l.814.706a4.064,4.064,0,0,1,2.854-1.277s-2.082.539-2.667,1.419l.893.588a3.97,3.97,0,0,1,2.591-1.228s-2.345.864-2.378,1.35a5.077,5.077,0,0,0,1.14.509s.985-.946,1.7-.811c0,0-1.5.745-1.455.92a5.856,5.856,0,0,0,2.023.171,4.023,4.023,0,0,1-2.066.033,2.21,2.21,0,0,0,.913.877s-.775.141-1.222-.966a5.118,5.118,0,0,1-1.087-.443,4.823,4.823,0,0,0,.818,1.734,2.142,2.142,0,0,1-1.061-1.882l-.91-.575a6.824,6.824,0,0,0,.736,2.1,2.7,2.7,0,0,1-.952-2.259l-.8-.683a8.1,8.1,0,0,0,.509,2.069,3.283,3.283,0,0,1-.732-2.273l-.483-.522s.131.985.194,1.264,0,.328,0,.328a3.373,3.373,0,0,1-.394-1.8A8.258,8.258,0,0,0,542.08,462.684Z" transform="translate(-385.014 -330.265)" fill="#ffb677" opacity="0.1"/>
      <path id="Trazado_25" data-name="Trazado 25" d="M451.156,629.334s17.038-5.737,13.511-26.065l-21.642-5.619L438,614.33Z" transform="translate(-315.114 -421.06)" fill="#ced7e7"/>
      <path id="Trazado_26" data-name="Trazado 26" d="M438,625.821l13.153,15s17.038-5.737,13.511-26.065Z" transform="translate(-315.114 -432.551)" opacity="0.1"/>
      <path id="Trazado_27" data-name="Trazado 27" d="M219.951,180.511s2.3,3.741,5.442,1.872.128-7.031.128-7.031S219.5,174.527,219.951,180.511Z" transform="translate(-168.657 -137.421)" fill="#fed253"/>
      <path id="Trazado_28" data-name="Trazado 28" d="M225.392,182.386a3.241,3.241,0,0,1-2.532.427,5.1,5.1,0,0,1-2.516-1.76,5.483,5.483,0,0,1-.394-.535c-.161-2.135.5-3.406,1.422-4.154h0a5.79,5.79,0,0,1,3.77-1.038,1.711,1.711,0,0,1,.368.033l.062.105c.089.167.282.539.489,1.034C226.765,178.124,227.6,181.07,225.392,182.386Z" transform="translate(-168.657 -137.425)" opacity="0.1"/>
      <path id="Trazado_29" data-name="Trazado 29" d="M463.214,611.85l11.823.956,22,.181L479.7,634.333s-5.5.3-6.634,1.074-17.041.361-17.041.361l-2.568-10.942Z" transform="translate(-325.497 -430.597)" fill="#ffa2a2"/>
      <path id="Trazado_30" data-name="Trazado 30" d="M463.214,611.85l11.823.956,22,.181L479.7,634.333s-5.5.3-6.634,1.074-17.041.361-17.041.361l-2.568-10.942Z" transform="translate(-325.497 -430.597)" opacity="0.05"/>
      <path id="Trazado_31" data-name="Trazado 31" d="M422.3,436.143l2.749,4.663.6,8.131s1.915,6.933,3.35,8.965,2.033,7.415,2.033,7.415.6,5.021,1.314,6.1,1.675,8.867,1.675,8.867,6.338,12.673,12.075,14.227c0,0-28.456,9.327-13.511,26.065,0,0-10.64,2.627-13.153-.358s-9.087-47.228-9.087-47.228l2.033-37.307Z" transform="translate(-296.538 -312.282)" fill="#ced7e7"/>
      <path id="Trazado_32" data-name="Trazado 32" d="M422.3,436.143l2.749,4.663.6,8.131s1.915,6.933,3.35,8.965,2.033,7.415,2.033,7.415.6,5.021,1.314,6.1,1.675,8.867,1.675,8.867,6.338,12.673,12.075,14.227c0,0-28.456,9.327-13.511,26.065,0,0-10.64,2.627-13.153-.358s-9.087-47.228-9.087-47.228l2.033-37.307Z" transform="translate(-296.538 -312.282)" opacity="0.05"/>
      <path id="Trazado_33" data-name="Trazado 33" d="M270.54,256.907a25.615,25.615,0,0,0,.69,12.447L266.8,282.026s-33.717-18.772-30.847-23.317c1.626-2.578,1.832-9.4,1.7-14.818-.1-4.118-.388-7.422-.388-7.422s41.379,4.069,35.872,13.514A22.3,22.3,0,0,0,270.54,256.907Z" transform="translate(-179.305 -178.494)" fill="#ffa2a2"/>
      <path id="Trazado_34" data-name="Trazado 34" d="M276.182,249.984a22.294,22.294,0,0,0-2.6,6.923A27.9,27.9,0,0,1,240.7,243.892c-.1-4.118-.388-7.422-.388-7.422S281.679,240.539,276.182,249.984Z" transform="translate(-182.346 -178.493)" opacity="0.1"/>
      <path id="Trazado_35" data-name="Trazado 35" d="M286.554,158.762A27.862,27.862,0,1,1,235.96,142.67q.591-.831,1.245-1.622a27.868,27.868,0,0,1,9.067-7.225h0a27.369,27.369,0,0,1,5.961-2.161,27.914,27.914,0,0,1,33.98,22.637,28.2,28.2,0,0,1,.342,4.463Z" transform="translate(-175.98 -107.6)" fill="#ffa2a2"/>
      <path id="Trazado_36" data-name="Trazado 36" d="M190.661,372.546c-.417,2.227.105,6.3.9,10.437.033.181.069.361.105.542s.089.46.135.686c.365,1.78.762,3.543,1.149,5.146s.736,2.975,1.031,4.105c.447,1.691.752,2.755.752,2.755s.039,1.044.092,2.706c.03.959.062,2.128.1,3.419,0,.374.023.755.033,1.149.016.686.033,1.4.049,2.128,0,.236,0,.473.016.713,0,.785.03,1.586.043,2.384.016,1.1.03,2.194.036,3.258v4.092a24.158,24.158,0,0,1-.355,5.021c-.076.19-.145.4-.21.614a20.763,20.763,0,0,0-.617,3.11l-.558-.456c-1.067-.88-2.125-1.78-3.2-2.654a46.506,46.506,0,0,0-5.668-4.066c-.135-.079-.269-.158-.407-.233-.368-.213-.742-.414-1.123-.6a25.73,25.73,0,0,0-2.41-1.064,31.573,31.573,0,0,0-11.974-1.882c-1.642.627-2.709,1.077-2.709,1.077l-2.089.631-.348.105c-2.263.69-5.445,1.668-6.591,2.076-1.852.657-17.934,4-17.934,4a26.715,26.715,0,0,1-4.486.821,63.333,63.333,0,0,1-8.41,1.76,46.862,46.862,0,0,1-19.248-1.55,3.148,3.148,0,0,1-.558-.016,1.718,1.718,0,0,0,.328-.046l-.4-.118-.548-.171q-1.379-.434-2.736-.949l-.548-.21q-1.314-.506-2.571-1.087l-.548-.25q-1.314-.611-2.571-1.291c-.3-.158-.6-.328-.9-.489q-1.34-.749-2.627-1.57c-.144-1.238-.22-2.066-.22-2.066l-1.281-6.378-.066-.328-.92-4.6-.066-.328-2-10-.066-.328-.92-4.6-.066-.328-2.026-10-.066-.328-.92-4.6-.066-.328-2.01-10.016-.066-.328-.92-4.581-.066-.328-.365-1.806-.548-2.736s-1.75-2.5-3.721-5.461l-.22-.328c-.562-.831-1.14-1.695-1.7-2.542-.187-.279-.368-.555-.548-.828q-.411-.621-.795-1.212l-.177-.273-.036-.056c-2.831-4.381-.936-6.286-.936-6.286s1.189-1.609,2.722-3.737c.076-.108.154-.217.236-.328.657-.919,1.379-1.924,2.089-2.929l.548-.782c.207-.292.411-.585.608-.874.079-.108.154-.22.227-.328a38.856,38.856,0,0,0,3.018-4.772c.4-1.067,2.956-4.223,5.5-6.992a28.988,28.988,0,0,1,4.9-4.6c2.033-1.074,2.87-4.545,2.87-4.545s4.424-1.55,5.021-2.745S109,296.392,109,296.392a44.238,44.238,0,0,0,4.755-3.494,2.8,2.8,0,0,0,.5-.588c.476-.854,3.586-1.557,4.851-1.81.328-.066.532-.1.532-.1a10.7,10.7,0,0,1,1.915-2.512,11.515,11.515,0,0,0,1.7-3.553c.588-1.662,1.044-3.261,1.044-3.261.959-3.228,2.87-2.273,2.87-2.273a6.568,6.568,0,0,0,.125,1.314h0c.8,3.941,5.133,5.583,7.409,7.425,2.512,2.03,6.456,7.294,9.566,8.368,2.575.89,5.56,4.246,6.506,5.366l.072.085c.158.184.236.289.236.289s1.764-.092,2.837-.112h.391a1.143,1.143,0,0,0,.6-.243c1.067-.726,2.657-2.854,3.35-3.343.834-.6,1.675-10.286,1.675-10.286l.043-.02c2.979-1.4,6.174,12.575,6.174,12.575s5.619,1.675,6.1,2.87a4.294,4.294,0,0,0,1.153,1.166,63.186,63.186,0,0,0,9.228,5.862c.072.036.141.072.213.1a2.182,2.182,0,0,0,.2.1c.121.059.24.112.351.161q.266.118.493.2l.2.069a4.749,4.749,0,0,1,1.314.68c.118.085.236.174.351.269a9.282,9.282,0,0,1,1.228,1.235c.056.066.108.135.161.2h0a11.061,11.061,0,0,1,.657.906,13.424,13.424,0,0,1,.824,1.373s4.9,8.371,6.456,9.323,2.512,10.644,2.512,10.644h0l-5.254,19.478s-.246,4.926-.706,9.951C191.373,367.617,191.048,370.484,190.661,372.546Z" transform="translate(-69.088 -206.833)" fill="#ced7e7"/>
      <path id="Trazado_37" data-name="Trazado 37" d="M283.906,337.72a19.119,19.119,0,0,1-6.276,2.092,5.171,5.171,0,0,1-1.077-.062c-2.883-.437-7.113-2.808-7.113-2.808L274.4,331.5l6.036,2.992,2.22,2.066Z" transform="translate(-201.91 -242.315)" fill="#63667e"/>
      <path id="Trazado_38" data-name="Trazado 38" d="M286.206,154.313a3.3,3.3,0,0,1-.424.489c-1.727,1.642-4.795.962-7.149.581a26.036,26.036,0,0,1-5.954-1.721c-1.662-.709-3.655-1.576-5.149-.558-.575.388-.969,1.008-1.566,1.35a4.313,4.313,0,0,1-2.066.374,30.16,30.16,0,0,1-6.841-.493c-3.346-.782-6.808-2.749-9.99-1.452-2.489,1.011-3.839,3.721-4.512,6.325a11.444,11.444,0,0,1-1.314,3.711,3,3,0,0,1-3.4,1.343c-1.8-.752-2.069-3.813-4.243-3.967-2.388-.167-2.358,2.3-1.662,4.082,1.031,2.627,2.381,5.254,2.44,7.993a27.878,27.878,0,0,1,1.589-29.7,3,3,0,0,0,1.186-1.386,2.073,2.073,0,0,0,.059-.236c.181-.916-.328-1.878-.358-2.837-.115-2.342,2.42-3.974,4.745-4.269,1.547-.2,3.13-.046,4.68-.1h0a10.588,10.588,0,0,0,2.315-.309,11.137,11.137,0,0,0,3.612-1.855,27.914,27.914,0,0,1,33.98,22.637Z" transform="translate(-175.986 -107.614)" opacity="0.1"/>
      <path id="Trazado_39" data-name="Trazado 39" d="M281.536,142.6a3.613,3.613,0,0,1-.985,1.708c-1.727,1.642-4.795.959-7.149.578a25.711,25.711,0,0,1-5.954-1.708c-1.662-.706-3.655-1.573-5.149-.555-.575.388-.969,1.008-1.566,1.35a4.273,4.273,0,0,1-2.066.371,29.247,29.247,0,0,1-6.841-.489c-3.346-.785-6.808-2.749-9.99-1.455-2.489,1.011-3.839,3.724-4.512,6.328a11.4,11.4,0,0,1-1.314,3.708,3,3,0,0,1-3.4,1.346c-1.8-.752-2.069-3.813-4.243-3.967-2.388-.167-2.358,2.3-1.662,4.082,1.222,3.11,2.883,6.2,2.338,9.5-.542,0-1.438-.02-1.97-.033.414-.706-.374-1.547-1.159-1.787s-1.7-.236-2.3-.808a2.7,2.7,0,0,1-.539-2.246,15.458,15.458,0,0,1,1.225-4.906c.43-.985.985-2.053.657-3.084a8.763,8.763,0,0,0-.709-1.343,5.13,5.13,0,0,1,.062-4.312c.25-.578.43-1.123.637-1.642a7.3,7.3,0,0,1,1.12-2.046c.752-.936,1.488-2.345.657-3.215-.21-.22.21-.371.076-.657a.563.563,0,0,1-.049-.154,1.491,1.491,0,0,1,.236-.985,2.411,2.411,0,0,1,.128-.22,1.871,1.871,0,0,1,.128-.217,10.44,10.44,0,0,1,2.841-3.1c.713-.516,1.547-1.011,1.829-1.846.328-.985-.25-2.033-.3-3.074-.115-2.342,2.42-3.974,4.745-4.269s4.736.194,7-.407c3.215-.847,5.475-3.685,8.394-5.277a11.885,11.885,0,0,1,10.443-.374c3.409,1.557,5.98,4.7,9.54,5.885a17.545,17.545,0,0,1,3.764,1.284,8.279,8.279,0,0,1,2.795,3.612c1.041,2.112,1.251,4.233,1.97,6.47a23.985,23.985,0,0,1,1.429,6.135,6.148,6.148,0,0,1-.161,1.816Z" transform="translate(-170.755 -97.831)" fill="#896363"/>
      <g id="Grupo_7" data-name="Grupo 7" transform="translate(52.392 29.297)" opacity="0.1">
        <path id="Trazado_40" data-name="Trazado 40" d="M234.742,181.2a1.461,1.461,0,0,0-.246-1.228c.085.256-.286.4-.082.617A1.313,1.313,0,0,1,234.742,181.2Z" transform="translate(-230.737 -169.845)"/>
        <path id="Trazado_41" data-name="Trazado 41" d="M234.619,177.68h0a1.355,1.355,0,0,0-.069.355C234.612,177.93,234.7,177.821,234.619,177.68Z" transform="translate(-230.87 -168.307)"/>
        <path id="Trazado_42" data-name="Trazado 42" d="M287.459,193.077c-1.731,1.642-4.795.962-7.156.578a25.537,25.537,0,0,1-5.947-1.718c-1.665-.709-3.655-1.576-5.153-.558-.571.388-.966,1.008-1.566,1.35a4.28,4.28,0,0,1-2.066.371,30.016,30.016,0,0,1-6.844-.493c-3.343-.782-6.8-2.742-9.987-1.452-2.489,1.015-3.839,3.724-4.512,6.328a11.369,11.369,0,0,1-1.314,3.711,3,3,0,0,1-3.4,1.346c-1.8-.755-2.069-3.813-4.243-3.967-1.7-.121-2.171,1.094-2.056,2.443a1.727,1.727,0,0,1,2.056-1.727c2.174.154,2.44,3.215,4.243,3.967a2.99,2.99,0,0,0,3.4-1.346,11.508,11.508,0,0,0,1.314-3.708c.673-2.6,2.023-5.317,4.512-6.328,3.182-1.294,6.644.657,9.987,1.452a29.086,29.086,0,0,0,6.844.489,4.156,4.156,0,0,0,2.066-.368c.614-.348.985-.962,1.566-1.353,1.5-1.015,3.488-.148,5.153.558a25.7,25.7,0,0,0,5.947,1.721c2.361.381,5.425,1.067,7.156-.581a4.513,4.513,0,0,0,1.159-3.612A4.136,4.136,0,0,1,287.459,193.077Z" transform="translate(-229.964 -176.702)"/>
        <path id="Trazado_43" data-name="Trazado 43" d="M249.436,149.14a3.492,3.492,0,0,0-.02.493c.033.683.292,1.366.374,2.033A10.22,10.22,0,0,0,249.436,149.14Z" transform="translate(-240.854 -149.14)"/>
        <path id="Trazado_44" data-name="Trazado 44" d="M226.8,212.682a2.419,2.419,0,0,1,.062.3,2.358,2.358,0,0,0-.062-1.015,8.515,8.515,0,0,0-.709-1.346,4.055,4.055,0,0,1-.43-1.56,4.325,4.325,0,0,0,.43,2.279A8.345,8.345,0,0,1,226.8,212.682Z" transform="translate(-224.888 -189.382)"/>
        <path id="Trazado_45" data-name="Trazado 45" d="M237.52,255.062l-1.921-.03a.824.824,0,0,1-.059.716c.542,0,1.442.02,1.97.033a8.046,8.046,0,0,0,.1-1.7A7.7,7.7,0,0,1,237.52,255.062Z" transform="translate(-231.535 -219.617)"/>
        <path id="Trazado_46" data-name="Trazado 46" d="M226.187,247.06c-.785-.236-1.7-.24-2.282-.814a2.082,2.082,0,0,1-.545-1.376,2.585,2.585,0,0,0,.545,2.1c.585.575,1.5.578,2.282.814a1.951,1.951,0,0,1,1.192.985C227.711,248.085,226.949,247.287,226.187,247.06Z" transform="translate(-223.345 -213.432)"/>
      </g>
      <path id="Trazado_47" data-name="Trazado 47" d="M347.316,480.944c-.368-.213-.742-.414-1.123-.6a25.719,25.719,0,0,0-2.411-1.064,31.572,31.572,0,0,0-11.974-1.882c-1.642.627-2.709,1.077-2.709,1.077l-2.089.631-.348.105c-.023-.23-.049-.46-.072-.693s-.049-.457-.076-.686c-.736-6.965-1.314-14.121-1.314-14.121v-6.9l-.039-18.21-.328-6-.154-2.657-.03-.506-.059-1.038-.033-.617a5.553,5.553,0,0,1-.184-.6h0c-.023-.082-.046-.174-.066-.269-.082-.328-.171-.752-.263-1.212-.6-3.021-1.353-8.115-1.4-9.149-.059-1.379-1.254-9.629-1.254-9.629-.122-4.542-3.941-13.094-4.9-14.706s-2.036-11.3-1.675-11.823a15.129,15.129,0,0,0,.384-3.455c0-.174.016-.345.023-.512.049-1.192.072-2.187.072-2.187l3.757-.742,1.008-.2.079-.016.033.066c.108.2.447.841.844,1.681.046.089.089.184.135.279.02.046.043.092.066.138a14.462,14.462,0,0,1,1.55,4.946c-.059,2.154,2.394,7.356,2.394,7.356.236,1.2,5.438,13.09,5.438,13.09s4.246,11.658,4.007,13.573S336.636,429,336.636,429l2.332,13.034a77.043,77.043,0,0,1,2.627,8.486l.568,3.356.108.64,1.514,8.956.742,4.387s.312,2.332.785,4.926c.039.233.085.47.131.706a36.139,36.139,0,0,0,1.238,5.041,18.879,18.879,0,0,1,.634,2.414Z" transform="translate(-232.334 -270.374)" opacity="0.1"/>
      <path id="Trazado_48" data-name="Trazado 48" d="M348.464,481.164c-.135-.079-.269-.158-.407-.233-.368-.213-.742-.414-1.123-.6a25.723,25.723,0,0,0-2.41-1.064,31.572,31.572,0,0,0-11.974-1.882c-1.642.627-2.709,1.077-2.709,1.077l-2.089.631c-.026-.23-.049-.46-.076-.693s-.046-.42-.066-.631c-.736-6.949-1.314-14.072-1.314-14.072v-6.959l-.039-18.164-.328-5.734-.066-1.189-.046-.8-.059-1.064-.059-1.08-.043-.778v-.171a.063.063,0,0,0-.023-.056c-.062-.177-.138-.447-.22-.788l-.039-.164c-.016-.076-.036-.158-.053-.24-.617-2.8-1.524-8.841-1.573-9.974-.059-1.379-1.254-9.629-1.254-9.629-.122-4.542-3.941-13.094-4.9-14.706s-2.033-11.3-1.675-11.823a19.1,19.1,0,0,0,.407-3.967v-.381c.043-1.015.059-1.806.059-1.806l3.494-.69.887-.174.138-.026.328-.066s.43.795.946,1.888l.066.138a15.065,15.065,0,0,1,1.616,5.084c-.059,2.154,2.394,7.356,2.394,7.356.236,1.2,5.438,13.09,5.438,13.09s4.246,11.658,4.007,13.573,2.033,14.588,2.033,14.588l2.332,13.034a77.041,77.041,0,0,1,2.627,8.486l.529,3.126.108.634,1.192,7.067,1.1,6.512s.328,2.322.782,4.926c.043.236.085.473.131.713a36.326,36.326,0,0,0,1.238,5.064,20.04,20.04,0,0,1,.7,2.624Z" transform="translate(-233.075 -270.361)" fill="#63667e"/>
      <path id="Trazado_49" data-name="Trazado 49" d="M282.294,111.664s-1.255,1.616-2.387,1.616a35.491,35.491,0,0,1-7.842-.9c-2.3-.716-13.57-1.258-13.57-1.258s-15.96.059-16.5-.479-9.924-3.409-10.88-3.228c-.2.039-.69.125-1.343.233l-.749.122c-1.133.181-2.548.391-3.842.545a12,12,0,0,1-3.452.118V107.06a18.693,18.693,0,0,0,1.97-3.465c.118-.772,1.675-11.961,5.741-15.964a16.026,16.026,0,0,1,7.711-7.225c5.5-2.394,11-4.424,11-4.424l.962-.138,3.1-.46a2.344,2.344,0,0,1,.305-.256c.86-.657,3.468-2.085,6.867.985l.6.959s10.46,2.45,15.3,11,5.084,16.919,5.442,20.745c0,0-.24,1.077.24,1.494a6.706,6.706,0,0,1,.5.486c.043.043.085.085.125.131.138.138.266.282.371.4a.155.155,0,0,1,.033.033,1.053,1.053,0,0,0,.082.089Z" transform="translate(-169.868 -69.527)" fill="#fed253"/>
      <path id="Trazado_50" data-name="Trazado 50" d="M298.305,172.365s-1.254,1.616-2.387,1.616a35.492,35.492,0,0,1-7.842-.9c-2.3-.716-13.57-1.258-13.57-1.258s-15.961.059-16.5-.479-9.924-3.409-10.88-3.228c-.2.039-.69.125-1.343.233l-.171-1.051-.043-.259s18.115-3.885,30.19-1.849,20.985,4.3,20.985,4.3-.24,1.077.24,1.494a6.7,6.7,0,0,1,.5.486c.043.043.085.085.125.131.138.138.266.282.371.4a.154.154,0,0,1,.033.033,1.09,1.09,0,0,0,.082.089Z" transform="translate(-185.879 -130.228)" opacity="0.05"/>
      <path id="Trazado_51" data-name="Trazado 51" d="M279.465,181.952a47.3,47.3,0,0,1-8.161-.637c-.512-.076-1.015-.167-1.521-.279-1.934-.42-7.882-1.6-11.494-1.054-4.365.657-16.68-.539-16.68-.539a88.374,88.374,0,0,1-10.644-2.808,10.582,10.582,0,0,0-4.854-.378,13.511,13.511,0,0,0-1.412.253c-2.542.6-4.686,1.97-4.315,4.305a5.49,5.49,0,0,1-.394-.535c-.161-2.135.5-3.406,1.422-4.154h0l.217-.089a26.523,26.523,0,0,1,3.422-.732c.181-.03.368-.056.558-.079,3.268-.44,7.993-.539,11.98,1.468,0,0,3.7,1.737,6.217,1.737s22.956.181,27.74,1.553a20.364,20.364,0,0,0,2.906.614,11.823,11.823,0,0,0,5.189-.489,6.149,6.149,0,0,1-.177,1.842Z" transform="translate(-168.684 -137.187)" opacity="0.1"/>
      <path id="Trazado_52" data-name="Trazado 52" d="M282.294,177.821s-1.255,1.616-2.387,1.616a35.492,35.492,0,0,1-7.842-.9c-2.3-.716-13.57-1.258-13.57-1.258s-15.96.059-16.5-.479-9.924-3.409-10.88-3.228c-.2.039-.69.125-1.343.233l-.749.122a13.334,13.334,0,0,0-3.842.545,12,12,0,0,1-3.452.118v-.273a7.881,7.881,0,0,1,1.074-.519,29.045,29.045,0,0,1,6.8-1.057,19,19,0,0,1,9.166,1.714s3.7,1.737,6.217,1.737,22.956.177,27.74,1.553a20.8,20.8,0,0,0,2.906.611,12.085,12.085,0,0,0,6.335-.91.155.155,0,0,1,.033.033,1.087,1.087,0,0,0,.082.089Z" transform="translate(-169.868 -135.683)" opacity="0.1"/>
      <path id="Trazado_53" data-name="Trazado 53" d="M218.367,180.017s-4.007-3.051,1.2-5.084c0,0,9.087-2.808,15.964.657,0,0,3.7,1.731,6.217,1.731s22.956.181,27.74,1.557a20.688,20.688,0,0,0,2.906.611,12.371,12.371,0,0,0,7.379-1.4c.328-.181.624-.273.713-.167.3.361.062,2.453-2.568,2.87-2.053.328-6.716-.292-8.676-.578-.509-.076-1.015-.171-1.517-.279-1.934-.42-7.882-1.6-11.511-1.054-4.361.657-16.68-.539-16.68-.539s-7.589-1.553-10.64-2.811S217.231,175.354,218.367,180.017Z" transform="translate(-166.621 -136.445)" fill="#fed253"/>
      <path id="Trazado_54" data-name="Trazado 54" d="M311.409,82.864c-.328-.473-4.548-3.852-6.269-5.218l3.1-.46a2.345,2.345,0,0,1,.305-.256A12.837,12.837,0,0,1,311.409,82.864Z" transform="translate(-225.886 -71.347)" opacity="0.1"/>
      <path id="Trazado_55" data-name="Trazado 55" d="M215.906,89.407,214.53,91.44l5.261-.177.118-2.273Z" transform="translate(-144.071 -59.765)" opacity="0.1"/>
      <path id="Trazado_56" data-name="Trazado 56" d="M316.47,97.73l.6,1.852,3.35.539-1.435-2.213Z" transform="translate(-212.533 -65.635)" opacity="0.1"/>
      <path id="Trazado_57" data-name="Trazado 57" d="M205.18,347c.358.6,12.135,16.092,15.245,15.662S205.18,347,205.18,347Z" transform="translate(-158.753 -252.725)" opacity="0.1"/>
      <path id="Trazado_58" data-name="Trazado 58" d="M325.33,390.12s2.87,2.752,2.45,3.826S325.33,390.12,325.33,390.12Z" transform="translate(-239.445 -281.684)" opacity="0.1"/>
      <path id="Trazado_59" data-name="Trazado 59" d="M226.715,447.65s-2.512,11.777-1.2,12.151S226.715,447.65,226.715,447.65Z" transform="translate(-172.157 -320.321)" opacity="0.1"/>
      <path id="Trazado_60" data-name="Trazado 60" d="M328.24,586.91c.417,1.2,3.885,8.969,4.663,9.386S328.24,586.91,328.24,586.91Z" transform="translate(-241.4 -413.847)" opacity="0.1"/>
      <path id="Trazado_61" data-name="Trazado 61" d="M445.731,489.7c-.121.417-3.11,2.87-2.453,3.767S445.731,489.7,445.731,489.7Z" transform="translate(-318.595 -348.562)" opacity="0.1"/>
      <path id="Trazado_62" data-name="Trazado 62" d="M379.871,556.14c-.059.3-.657,6.568.479,7.773S379.871,556.14,379.871,556.14Z" transform="translate(-275.934 -393.182)" opacity="0.1"/>
      <path id="Trazado_63" data-name="Trazado 63" d="M275.842,616.631c-.867.483-1.764.949-2.676,1.4-.985.479-1.97.936-2.975,1.366-.4.174-.8.345-1.2.509q-.906.374-1.793.719c-1.8.7-3.527,1.314-5.067,1.829-.6.2-1.169.384-1.7.555-2.68.851-4.46,1.314-4.46,1.314a4.831,4.831,0,0,0-1.238-.1h-.355a15.6,15.6,0,0,0-1.658.21,76.526,76.526,0,0,0-11.974,3.7c-1.642.627-2.709,1.077-2.709,1.077l-2.089.631-.348.105c-2.263.69-5.445,1.668-6.591,2.076-1.852.657-17.934,4-17.934,4a26.72,26.72,0,0,1-4.486.821,81.868,81.868,0,0,1-11.238.256c-3.764.243-9.852-.585-13.4-1.143l-.565-.089c-1.369-.223-2.24-.384-2.24-.384l.46-.634,9.428-13.008.056-.079,8.785-12.115.328-.44.8-1.1s.479-.657,2.325-.7h.713a19.246,19.246,0,0,1,4.555.929l.427.128c6.361,1.823,16.194,1.366,16.194,1.366s6.118-.985,10.926-1.576l.358-.046a44.093,44.093,0,0,1,4.739-.41c2.929.059,9.268-1.494,9.268-1.494a6.176,6.176,0,0,0,2.706-1.087c.1-.072.21-.151.328-.236.328-.246.706-.548,1.192-.923.887-.68,2.131-1.6,4.089-2.9.171-.112.351-.223.545-.328s.44-.246.676-.365A25.65,25.65,0,0,1,264,598.5a34.9,34.9,0,0,1,5.179-.713h.259c4.926-.263,9.957.581,12.9,3.35a8.074,8.074,0,0,1,1.333,1.642,7.472,7.472,0,0,1,.479.893,8.379,8.379,0,0,1,.594,1.839q.036.177.059.355v.105c0,.1.02.19.026.286C285.09,610.188,281.011,613.741,275.842,616.631Z" transform="translate(-141.272 -421.122)" opacity="0.1"/>
      <path id="Trazado_64" data-name="Trazado 64" d="M179.15,633.282s10.64,1.97,16.2,1.613c0,0,10.223.539,15.724-1.074,0,0,16.092-3.35,17.934-4.006S238.036,627,238.036,627s13.99-5.859,17.934-4.9c0,0,30.969-8.01,28.755-18.831s-21.76-8.368-27.914-4.305-5.254,4.486-8.309,5.143c0,0-6.338,1.553-9.268,1.494s-16.023,2.033-16.023,2.033-10.282.479-16.617-1.494S199,605.9,199,605.9Z" transform="translate(-141.272 -419.625)" fill="#ffa2a2"/>
      <path id="Trazado_65" data-name="Trazado 65" d="M143.191,474.724a.161.161,0,0,1,0,.039,2.217,2.217,0,0,1-.187.706c-1.261,3.094-8.42,11.438-8.42,11.438a22.859,22.859,0,0,1-1.179,2.9,44.418,44.418,0,0,1-3.4,5.764,78.04,78.04,0,0,1-6.184,7.839h-.016a9.4,9.4,0,0,1-.883.581,7.311,7.311,0,0,1-3.025,1.1,3.148,3.148,0,0,1-.558-.016,1.723,1.723,0,0,0,.328-.046l-.4-.118-.548-.171q-1.379-.434-2.736-.949l-.548-.21q-1.314-.506-2.571-1.087l-.548-.25q-1.314-.611-2.571-1.291c-.3-.158-.6-.328-.9-.489q-1.34-.749-2.627-1.57-1.366-.87-2.673-1.816c-.657-1.218-1.2-2.3-1.494-2.88a8.011,8.011,0,0,1-.519-3.747,1.783,1.783,0,0,1,.02-.328c.056-.7.141-1.186.141-1.186a16.877,16.877,0,0,1-1.314-2.049,2.41,2.41,0,0,1-.368-1.179,1.4,1.4,0,0,0-.046-.5,11.65,11.65,0,0,0-2.345-3.941c-.749-.824-.795-3.9-.722-6.089.043-1.314.125-2.279.125-2.279a.765.765,0,0,1-.312-.4,9.761,9.761,0,0,1-.532-2.227,2.322,2.322,0,0,0-.046-.328c-.21-1.507-.305-3.021-.305-3.021A11.454,11.454,0,0,1,91.7,459.92l-.069-.328a20.69,20.69,0,0,1-.374-4.6v-.411s.322-7.117,1.222-9.895c.036-.118.076-.227.115-.328a2.459,2.459,0,0,1,.256-.5,6.116,6.116,0,0,0,.755-2.236c.135-.677.246-1.429.328-2.177.076-.624.135-1.245.181-1.819.128-1.537.167-2.736.167-2.736l-.608-3c-.167-.818-.3-1.642-.384-2.466a2.882,2.882,0,0,0-.039-.328,27.753,27.753,0,0,1-.082-4.581,1.821,1.821,0,0,1,.02-.328,27.766,27.766,0,0,1,2.68-10.016l.164-.328q.328-.657.69-1.291c.174-.312.358-.621.548-.926a27.085,27.085,0,0,1,1.642-2.368c.085-.112.174-.22.263-.328a26.759,26.759,0,0,1,3.4-3.507c3.317-2.851,6.361-4.089,9.126-4.184,12.092-.427,18.873,20.959,19.97,24.706.105.361.158.558.158.558s4.9,4.9,3.465,7.054a3.7,3.7,0,0,0-.5,1.55c-.394,2.893.736,7.658.736,7.658s.4,1.314,1.57,4.46l.345.92a18.885,18.885,0,0,1,.483,8.24c-.4,2.837-1.353,5.346-2.874,5.99-3.11,1.314-2.273,2.627-1.557,3.708a14.759,14.759,0,0,1,1.061,2.424c.45,1.212.867,2.486,1.025,2.982.046.138.069.214.069.214a6.493,6.493,0,0,1,1.35-.361c.588-.082,1.169-.023,1.281.479.059.269.4.588.874.906A25.222,25.222,0,0,0,143.191,474.724Z" transform="translate(-82.239 -289.153)" opacity="0.1"/>
      <path id="Trazado_66" data-name="Trazado 66" d="M141.018,474.724h0a2.164,2.164,0,0,1-.187.723c-1.255,3.1-8.42,11.461-8.42,11.461a23.347,23.347,0,0,1-1.179,2.9,41.841,41.841,0,0,1-2.683,4.686,77.226,77.226,0,0,1-6.824,8.834l-.076.082s-.289.22-.749.5a8.538,8.538,0,0,1-2.676,1.123l-.4-.118-.548-.171q-1.379-.434-2.736-.949l-.548-.21q-1.314-.506-2.571-1.087l-.548-.25q-1.314-.611-2.571-1.291c-.3-.158-.6-.328-.9-.489q-1.34-.749-2.627-1.57-1.366-.87-2.673-1.816-.6-.434-1.2-.89c-.443-.841-.8-1.55-1.018-1.99a8.011,8.011,0,0,1-.519-3.747,1.785,1.785,0,0,1,.02-.328c.056-.7.141-1.186.141-1.186s-.266-.358-.588-.844c-.181-.269-.374-.581-.548-.89a3.047,3.047,0,0,1-.535-1.494.733.733,0,0,0,0-.171,1.593,1.593,0,0,0-.049-.328,11.664,11.664,0,0,0-2.348-3.941c-.749-.824-.795-3.9-.726-6.089v-.328c.046-1.133.115-1.951.115-1.951-.371-.161-.657-1.353-.841-2.627l-.049-.328c-.21-1.507-.305-3.021-.305-3.021a11.433,11.433,0,0,1-4.121-6.995,20.052,20.052,0,0,1-.427-5.254V454.6s.282-7.153,1.182-9.934c.036-.118.076-.227.115-.328a2.46,2.46,0,0,1,.292-.479,11.067,11.067,0,0,0,1.048-4.085l.039-.328c.273-2.3.348-4.555.348-4.555l-.611-3q-.25-1.232-.384-2.466c-.016-.108-.026-.22-.039-.328a27.76,27.76,0,0,1-.082-4.581,1.564,1.564,0,0,1,.023-.328,27.7,27.7,0,0,1,2.68-10.016c.053-.112.105-.22.164-.328a25.733,25.733,0,0,1,1.406-2.483c.177-.279.358-.555.548-.828.3-.433.611-.86.936-1.274l.263-.328a26.79,26.79,0,0,1,3.373-3.5c3.612-3.1,6.9-4.292,9.852-4.184,11.642.417,18.177,21.034,19.251,24.706.105.361.158.558.158.558s4.9,4.9,3.468,7.054a3.7,3.7,0,0,0-.5,1.55c-.4,2.893.736,7.658.736,7.658s.4,1.314,1.57,4.46c.105.292.22.6.328.92a18.885,18.885,0,0,1,.483,8.24c-.4,2.841-1.35,5.346-2.874,5.99-3.107,1.314-2.273,2.627-1.553,3.708a14.76,14.76,0,0,1,1.061,2.424c.568,1.547,1.09,3.2,1.09,3.2a6.381,6.381,0,0,1,.657-.214,3.36,3.36,0,0,1,1.419-.148.627.627,0,0,1,.562.48c.089.394.768.883,1.593,1.346a30.413,30.413,0,0,0,3.307,1.55Z" transform="translate(-80.782 -289.152)" fill="#ced7e7"/>
      <path id="Trazado_67" data-name="Trazado 67" d="M115.61,513.745c1.136-.059,13.333-4.782,15.846-3.169s18.062,12.075,18.062,12.075-9.744-12.732-18.233-15.721S115.61,513.745,115.61,513.745Z" transform="translate(-98.598 -359.753)" opacity="0.1"/>
      <path id="Trazado_68" data-name="Trazado 68" d="M169,587.46s12.2,2.45,14.049,4.125Z" transform="translate(-134.455 -414.217)" opacity="0.1"/>
      <path id="Trazado_69" data-name="Trazado 69" d="M153.132,643c-.177.181-4.6,10.1-4.243,10.1s4.125-5.911,4.125-5.911Z" transform="translate(-120.935 -451.517)" opacity="0.1"/>
      <path id="Trazado_70" data-name="Trazado 70" d="M180.61,606.75s-3.586,1.258-3.169,1.376S180.489,607.289,180.61,606.75Z" transform="translate(-140.101 -427.172)" opacity="0.1"/>
      <path id="Trazado_71" data-name="Trazado 71" d="M176.24,652.45c.6,1.255,2.509,5.021,2.929,4.424S176.24,652.45,176.24,652.45Z" transform="translate(-139.317 -457.864)" opacity="0.1"/>
      <path id="Trazado_72" data-name="Trazado 72" d="M247.814,303.469l-.512.729s-4.069-2.867-5.741-4.3-5.619,5.14-8.729,6.933-8.368,2.273-8.368,2.273-4.066-4.066-3.941-5.254-1.911-1.553-2.033-2.391a11.892,11.892,0,0,0-1.793-4.424c-.506-.631-.578-2.6-.532-4.322.328-.066.532-.1.532-.1a10.7,10.7,0,0,1,1.915-2.512c1.077-.956,2.749-6.814,2.749-6.814.956-3.228,2.867-2.273,2.867-2.273,0,4.9,5.025,6.7,7.534,8.729s6.456,7.294,9.566,8.371C243.88,298.98,246.865,302.346,247.814,303.469Z" transform="translate(-166.124 -208.317)" opacity="0.1"/>
      <path id="Trazado_73" data-name="Trazado 73" d="M247.781,301.281l-.512.732s-4.085-2.86-5.757-4.305-5.619,5.14-8.729,6.933-8.368,2.276-8.368,2.276-4.066-4.069-3.941-5.254-1.911-1.553-2.033-2.394a11.871,11.871,0,0,0-1.793-4.424c-.506-.631-.578-2.6-.532-4.322l.532-.1a10.7,10.7,0,0,1,1.915-2.512c1.077-.959,2.749-6.814,2.749-6.814.956-3.228,2.867-2.276,2.867-2.276,0,4.9,5.025,6.7,7.534,8.732s6.456,7.291,9.566,8.368C243.847,296.805,246.832,300.158,247.781,301.281Z" transform="translate(-166.09 -206.849)" fill="#ced7e7"/>
      <path id="Trazado_74" data-name="Trazado 74" d="M298.453,349a19.119,19.119,0,0,1-6.276,2.092,5.172,5.172,0,0,1-1.077-.062h0a16.368,16.368,0,0,1,5.859-2.732Z" transform="translate(-216.457 -253.598)" opacity="0.1"/>
      <path id="Trazado_75" data-name="Trazado 75" d="M323.251,375.463s-4.443-1.731-5.911.874c.049-1.2.069-2.187.069-2.187l4.844-.959s.466.864,1.012,2.026C323.251,375.371,323.251,375.463,323.251,375.463Z" transform="translate(-234.079 -270.314)" opacity="0.1"/>
      <path id="Trazado_76" data-name="Trazado 76" d="M291.1,350.6s5.323-3.2,7.882-2.926c2.683.279,7.882.476,7.882.476s-1.793,4.066-1.553,4.9a42.026,42.026,0,0,1,.3,4.9s-5.379-2.092-6.276,1.793c0,0-2.929-4.365-4.9-5.681a13.424,13.424,0,0,1-3.33-3.468Z" transform="translate(-216.457 -253.169)" fill="#63667e"/>
      <path id="Trazado_77" data-name="Trazado 77" d="M342.448,327.568c-1.553,0-7.054-3.471-8.25-5.741s-2.87.236-4.424,1.077c-.985.539-4.89-.588-7-1.406,1.067-.726,3.432-2.768,4.125-3.258.834-.6,1.675-10.286,1.675-10.286,2.989-1.553,6.217,12.555,6.217,12.555s5.622,1.675,6.1,2.87a4.3,4.3,0,0,0,1.153,1.166C342.7,326.2,343.066,327.568,342.448,327.568Z" transform="translate(-237.733 -226.423)" opacity="0.1"/>
      <path id="Trazado_78" data-name="Trazado 78" d="M344.033,325.4c-1.553,0-7.054-3.468-8.25-5.737s-2.87.236-4.424,1.074c-.985.539-4.115-.5-6.22-1.314,1.067-.723,2.657-2.851,3.35-3.343.834-.6,1.675-10.282,1.675-10.282,2.988-1.553,6.217,12.555,6.217,12.555s5.622,1.675,6.1,2.87a4.3,4.3,0,0,0,1.153,1.166C344.289,324.032,344.651,325.4,344.033,325.4Z" transform="translate(-239.318 -224.972)" fill="#ced7e7"/>
      <path id="Trazado_79" data-name="Trazado 79" d="M446.823,594.7l51.99-43.349a2.785,2.785,0,0,1,1.859-.657l19.4.509s1.343.985-.627,3.14L470.4,594.593a3.119,3.119,0,0,1-1.872.7l-21.208.7a.732.732,0,0,1-.493-1.294Z" transform="translate(-320.863 -389.527)" fill="#ffb677"/>
      <path id="Trazado_80" data-name="Trazado 80" d="M523.94,622.722s11.356,16.263,23.974,1.136,8.969-23.074,5.143-23.494S527.7,616.505,523.94,622.722Z" transform="translate(-372.831 -422.878)" fill="#ffa2a2"/>
      <path id="Trazado_81" data-name="Trazado 81" d="M757.17,77.884s14.637-28.407,31.937-13.757A5.454,5.454,0,0,1,792.6,69.5s-1.455-.8-2.611,2.253a14.741,14.741,0,0,1-1.642,3.064,7.225,7.225,0,0,1-3.645,2.752h0s-7.763,5.816-22.144,1.33c0,0-4.066.585-4.722.079l4.726-3.455s2.4,3.563,5.911,3.97c0,0-5.911-3.711-5.235-4.516.138-.164,2.588-1.718,2.588-1.718s4.2,6.177,9.645,6.634c0,0-7.629-3.478-8.722-7.225l3.832-2.138s4.118,6.749,10.3,7.5c0,0-7.849-3.911-9.432-7.915l4.056-1.583s4.148,6.5,9.294,7.1c0,0-8.611-5.435-8.341-7.4,0,0,3.813-1.228,4.982-1.067,0,0,3.084,4.6,6.105,4.68,0,0-5.369-4.243-5.015-4.9,0,0,5.392-.279,8.21,1.025a16.344,16.344,0,0,0-8.21-1.869,8.982,8.982,0,0,1,4.381-2.729s-2.972-1.222-5.688,2.811c0,0-4.194.384-4.713.851,0,0,2.121-4.361,4.732-6.217,0,0-3.892.686-5.819,6.6l-4.112,1.5s2.5-5.911,4.7-7.737c0,0-3.862,1.314-5.708,8.21l-3.783,2.056s1.763-5.254,3.777-7.819c0,0-3.32,1.99-4.841,8.447l-2.365,1.665s1.356-3.816,1.846-4.877.243-1.281.243-1.281a13.751,13.751,0,0,0-3.1,6.821S757.443,78.146,757.17,77.884Z" transform="translate(-529.467 -59.93)" fill="#ffb677" opacity="0.1"/>
      <path id="Trazado_82" data-name="Trazado 82" d="M941.5,144.268s6.614-12.837,14.43-6.217a2.458,2.458,0,0,1,1.576,2.424s-.657-.358-1.179,1.021a6.568,6.568,0,0,1-.736,1.383,3.284,3.284,0,0,1-1.642,1.245h0s-3.511,2.627-10.01.6a6.516,6.516,0,0,1-2.131.036l2.135-1.563a4.352,4.352,0,0,0,2.673,1.793s-2.667-1.675-2.365-2.039c.059-.072,1.166-.775,1.166-.775s1.9,2.791,4.361,3c0,0-3.448-1.573-3.941-3.284l1.734-.962s1.859,3.051,4.654,3.392c0,0-3.547-1.767-4.269-3.576l1.833-.716s1.872,2.939,4.2,3.209c0,0-3.892-2.456-3.767-3.343a9.495,9.495,0,0,1,2.25-.483s1.392,2.079,2.759,2.112c0,0-2.427-1.915-2.266-2.21a10.216,10.216,0,0,1,3.7.463,7.363,7.363,0,0,0-3.7-.844,4.068,4.068,0,0,1,1.97-1.235s-1.343-.552-2.571,1.271a9.374,9.374,0,0,0-2.128.384,8.9,8.9,0,0,1,2.138-2.808s-1.76.309-2.627,2.982l-1.839.69a12.6,12.6,0,0,1,2.125-3.5s-1.747.594-2.581,3.708l-1.708.926a15.026,15.026,0,0,1,1.7-3.534s-1.5.9-2.184,3.816l-1.071.752s.614-1.724.834-2.2.108-.578.108-.578a6.24,6.24,0,0,0-1.4,3.09A15.3,15.3,0,0,1,941.5,144.268Z" transform="translate(-653.262 -111.122)" fill="#ffb677" opacity="0.1"/>
      <path id="Trazado_83" data-name="Trazado 83" d="M723.27,189.748s6.614-12.837,14.45-6.217a2.464,2.464,0,0,1,1.576,2.427s-.657-.361-1.179,1.018a6.7,6.7,0,0,1-.736,1.383,3.284,3.284,0,0,1-1.658,1.245h0s-3.507,2.627-10.007.6c0,0-1.836.266-2.131.036l2.135-1.563a4.365,4.365,0,0,0,2.67,1.8s-2.667-1.678-2.365-2.043c.062-.072,1.169-.775,1.169-.775s1.9,2.791,4.358,3c0,0-3.445-1.573-3.941-3.284l1.734-.959s1.862,3.048,4.657,3.389c0,0-3.547-1.767-4.269-3.576l1.833-.716s1.875,2.939,4.2,3.209c0,0-3.892-2.456-3.77-3.343a9.528,9.528,0,0,1,2.253-.483s1.392,2.079,2.759,2.115c0,0-2.427-1.918-2.266-2.213a10.222,10.222,0,0,1,3.7.463,7.382,7.382,0,0,0-3.708-.844,4.069,4.069,0,0,1,1.97-1.235s-1.34-.552-2.568,1.271a9.373,9.373,0,0,0-2.128.384,8.851,8.851,0,0,1,2.138-2.808s-1.76.309-2.627,2.982l-1.862.69a12.639,12.639,0,0,1,2.125-3.494s-1.744.591-2.578,3.7l-1.711.926A15.089,15.089,0,0,1,729.2,183.3s-1.5.9-2.187,3.816l-1.071.752s.614-1.724.834-2.2.112-.578.112-.578a6.206,6.206,0,0,0-1.4,3.09A15.205,15.205,0,0,1,723.27,189.748Z" transform="translate(-506.7 -141.666)" fill="#ffb677" opacity="0.1"/>
    </g>
  </g>
</svg>
