<svg xmlns="http://www.w3.org/2000/svg" width="78.521" height="117.921" viewBox="0 0 78.521 117.921">
  <g id="user" transform="translate(-85.537)">
    <rect id="Rect치ngulo_46" data-name="Rect치ngulo 46" width="17.222" height="13.247" transform="translate(116.222 78.361)" fill="#f7d7d5"/>
    <rect id="Rect치ngulo_47" data-name="Rect치ngulo 47" width="17.222" height="7.111" transform="translate(116.222 78.361)" fill="#dd8e92" opacity="0.17"/>
    <path id="Trazado_84" data-name="Trazado 84" d="M191.589,79.554a28.664,28.664,0,0,1-10.573,13.151,28.187,28.187,0,0,1-15.847,4.867h-1.2A28.5,28.5,0,0,1,137.2,78.639V39.487l18.264-18.264h15.724l12.89,12.89,13.5,13.5Z" transform="translate(-39.767 -16.335)" fill="#f7d7d5"/>
    <g id="Grupo_13" data-name="Grupo 13" transform="translate(101.238 24.658)">
      <path id="Trazado_85" data-name="Trazado 85" d="M203.785,107.06,197.8,139a28.664,28.664,0,0,1-10.573,13.151,28.187,28.187,0,0,1-15.847,4.867h-1.2a28.2,28.2,0,0,1-16.465-5.3,28.406,28.406,0,0,0,23.082,11.916H178a28.182,28.182,0,0,0,15.847-4.867,28.662,28.662,0,0,0,10.573-13.151l5.987-31.945Z" transform="translate(-153.71 -107.06)" fill="#dd8e92" opacity="0.39"/>
      <path id="Trazado_86" data-name="Trazado 86" d="M210.651,264.127a17.885,17.885,0,0,1-12.687-5.246,1.8,1.8,0,0,1,2.552-2.552,14.349,14.349,0,0,0,20.269,0,1.8,1.8,0,0,1,2.552,2.552A17.888,17.888,0,0,1,210.651,264.127Z" transform="translate(-187.365 -221.543)" fill="#dd8e92"/>
      <path id="Trazado_87" data-name="Trazado 87" d="M242.7,202.009h-4.331a1.8,1.8,0,0,1-1.772-2.145l1.8-9.384a1.8,1.8,0,1,1,3.544.682l-1.392,7.239h2.146a1.8,1.8,0,1,1,0,3.609Z" transform="translate(-217.478 -170.14)" fill="#dd8e92"/>
    </g>
    <path id="Trazado_88" data-name="Trazado 88" d="M166.105,399.15a21.509,21.509,0,0,1,5.495,13.9v.529H99.831v-.529a20.331,20.331,0,0,1,20.331-20.331h2.254a2.388,2.388,0,0,0,2.39-2.388v-6.2h22.064v6.2a2.388,2.388,0,0,0,2.39,2.388h2.01a20.313,20.313,0,0,1,6.3,1A19.2,19.2,0,0,1,166.105,399.15Z" transform="translate(-11.002 -295.658)" fill="#5d5d5d"/>
    <path id="Trazado_89" data-name="Trazado 89" d="M270.061,399.15a19.2,19.2,0,0,0-8.532-5.434,20.316,20.316,0,0,0-6.3-1h-2.01a2.388,2.388,0,0,1-2.39-2.388v-6.2H234.943v6.2a2.388,2.388,0,0,0,2.39,2.388h2.01a20.314,20.314,0,0,1,6.3,1,19.2,19.2,0,0,1,8.532,5.434,21.509,21.509,0,0,1,5.494,13.9v.529h15.881v-.529A21.507,21.507,0,0,0,270.061,399.15Z" transform="translate(-114.996 -295.658)" opacity="0.2"/>
    <g id="Grupo_14" data-name="Grupo 14" transform="translate(108.112 40.799)">
      <path id="Trazado_90" data-name="Trazado 90" d="M285.5,182.427a1.8,1.8,0,0,1-1.276-.528,3.917,3.917,0,0,0-5.533,0,1.8,1.8,0,0,1-2.552-2.552,7.531,7.531,0,0,1,10.638,0,1.8,1.8,0,0,1-1.276,3.081Z" transform="translate(-254.404 -177.146)" fill="#dd8e92"/>
      <path id="Trazado_91" data-name="Trazado 91" d="M193.443,182.426a1.8,1.8,0,0,1-1.276-.528,3.917,3.917,0,0,0-5.533,0,1.8,1.8,0,0,1-2.552-2.552,7.531,7.531,0,0,1,10.638,0,1.8,1.8,0,0,1-1.276,3.081Z" transform="translate(-183.553 -177.146)" fill="#dd8e92"/>
    </g>
    <path id="Trazado_92" data-name="Trazado 92" d="M85.537,53.405v8.65h19.51l-.708-28.24A21.815,21.815,0,0,1,116.1,14.454a54.01,54.01,0,0,0-1.816,11.354l8.493-6.715a13.084,13.084,0,0,1,19.215,3.231,21.708,21.708,0,0,1,3.268,11.49l-.708,28.24h19.51V33.815c0-11.464-6.256-31.709-36.1-33.661a3.723,3.723,0,0,0-.473-.033h-.088c-.318-.018-.638-.036-.961-.05l0-.071Q125.6,0,124.8.018,123.99,0,123.162,0l0,.071c-.324.014-.643.032-.961.05h-.066a3.714,3.714,0,0,0-.452.03C91.8,2.087,85.537,22.346,85.537,33.815Z" transform="translate(0)" fill="#e0656b"/>
    <g id="Grupo_15" data-name="Grupo 15" transform="translate(120.582)" opacity="0.39">
      <path id="Trazado_93" data-name="Trazado 93" d="M245.07.154A3.723,3.723,0,0,0,244.6.121h-.088c-.318-.018-.638-.036-.961-.05V0q-.829,0-1.635.018Q241.107,0,240.28,0l0,.071c-.323.014-.643.032-.961.05h-.066a3.714,3.714,0,0,0-.452.03c-.372.024-.737.053-1.1.083,28.942,2.355,35.053,22.253,35.053,33.581v28.24h8.422V33.815C281.175,22.351,274.919,2.106,245.07.154Z" transform="translate(-237.7)" fill="#ad4d56"/>
    </g>
    <g id="Grupo_16" data-name="Grupo 16" transform="translate(113.821 91.041)" opacity="0.31">
      <path id="Trazado_94" data-name="Trazado 94" d="M208.345,395.288h13.782a1.8,1.8,0,1,1,0,3.609H208.345Z" transform="translate(-208.345 -395.288)"/>
    </g>
  </g>
</svg>
