<svg xmlns="http://www.w3.org/2000/svg" width="107.177" height="113" viewBox="0 0 107.177 113">
  <g id="worker" transform="translate(0 0)">
    <path id="Trazado_95" data-name="Trazado 95" d="M66.842,28.932h-3.8a2.215,2.215,0,0,1-2.129-1.651A27.189,27.189,0,0,0,58.256,20.9a2.171,2.171,0,0,1,.329-2.622L61.3,15.559a2.151,2.151,0,0,0,0-3.042L56.475,7.69a2.152,2.152,0,0,0-3.042,0l-2.717,2.717a2.169,2.169,0,0,1-2.621.329,27.2,27.2,0,0,0-6.383-2.652A2.216,2.216,0,0,1,40.06,5.956v-3.8A2.151,2.151,0,0,0,37.909,0H31.082a2.151,2.151,0,0,0-2.151,2.151v3.8A2.215,2.215,0,0,1,27.28,8.085,27.21,27.21,0,0,0,20.9,10.737a2.169,2.169,0,0,1-2.621-.329L15.559,7.69a2.152,2.152,0,0,0-3.042,0L7.69,12.517a2.151,2.151,0,0,0,0,3.042l2.717,2.717a2.171,2.171,0,0,1,.329,2.622,27.2,27.2,0,0,0-2.652,6.383,2.215,2.215,0,0,1-2.129,1.652H2.15A2.15,2.15,0,0,0,0,31.084V37.91A2.151,2.151,0,0,0,2.15,40.061h3.8a2.215,2.215,0,0,1,2.129,1.651A27.189,27.189,0,0,0,10.736,48.1a2.17,2.17,0,0,1-.329,2.622L7.69,53.434a2.151,2.151,0,0,0,0,3.042L12.517,61.3a2.152,2.152,0,0,0,3.042,0l2.717-2.717a2.169,2.169,0,0,1,2.622-.328,27.24,27.24,0,0,0,6.383,2.652,2.215,2.215,0,0,1,1.652,2.129v3.8a2.151,2.151,0,0,0,2.151,2.151H37.91a2.151,2.151,0,0,0,2.151-2.151v-3.8a2.214,2.214,0,0,1,1.651-2.129,27.226,27.226,0,0,0,6.383-2.652,2.169,2.169,0,0,1,2.622.328L53.434,61.3a2.151,2.151,0,0,0,3.042,0L61.3,56.476a2.15,2.15,0,0,0,0-3.042l-2.717-2.717a2.169,2.169,0,0,1-.328-2.622,27.15,27.15,0,0,0,2.651-6.383,2.216,2.216,0,0,1,2.129-1.651h3.8a2.151,2.151,0,0,0,2.151-2.151V31.084a2.151,2.151,0,0,0-2.151-2.152ZM34.5,48.863A14.367,14.367,0,1,1,48.863,34.5,14.367,14.367,0,0,1,34.5,48.863Zm0,0" fill="#8ebac5"/>
    <path id="Trazado_96" data-name="Trazado 96" d="M251.389,291.671l-6.142-12.165V266.192H226.3v13.315l-6.142,12.165Zm0,0" transform="translate(-171.57 -207.442)" fill="#bb5d4c"/>
    <path id="Trazado_97" data-name="Trazado 97" d="M302.922,266.191V291.67h12.963l-6.142-12.165V266.191Zm0,0" transform="translate(-236.067 -207.442)" fill="#a44f3e"/>
    <path id="Trazado_98" data-name="Trazado 98" d="M231.959,110.764h-1.2v-4.787a16.441,16.441,0,0,0-5.568-12.493,18.06,18.06,0,0,0-24.137,0,16.441,16.441,0,0,0-5.568,12.493v4.787h-1.2a3.192,3.192,0,0,0-3.192,3.192v3.537a3.192,3.192,0,0,0,3.192,3.192h1.208a16.411,16.411,0,0,0,5.562,12.12,18.06,18.06,0,0,0,24.137,0,16.411,16.411,0,0,0,5.562-12.12h1.208a3.192,3.192,0,0,0,3.192-3.192v-3.537a3.192,3.192,0,0,0-3.192-3.192Zm0,0" transform="translate(-148.916 -69.247)" fill="#bb5d4c"/>
    <path id="Trazado_99" data-name="Trazado 99" d="M320.571,123h-1.2v-4.787a16.441,16.441,0,0,0-5.568-12.493c-.463-.4-.959-.787-1.484-1.16l0,31.215a16.411,16.411,0,0,1-5.562,12.12,20.462,20.462,0,0,1-1.955,1.485,18.66,18.66,0,0,0,9-4.34,16.407,16.407,0,0,0,5.562-12.119h1.208a3.192,3.192,0,0,0,3.192-3.192v-3.537A3.192,3.192,0,0,0,320.571,123Zm0,0" transform="translate(-237.528 -81.479)" fill="#a44f3e"/>
    <path id="Trazado_100" data-name="Trazado 100" d="M216.841,64.727h-1.846A20.314,20.314,0,0,0,194.68,85.041v5.849h42.476V85.041A20.314,20.314,0,0,0,216.841,64.727Zm0,0" transform="translate(-151.714 -50.441)" fill="#ff9838"/>
    <path id="Trazado_101" data-name="Trazado 101" d="M279.562,64.727h-1.846a20.432,20.432,0,0,0-2.552.161A20.318,20.318,0,0,1,292.9,85.041v5.849h6.973V85.041a20.314,20.314,0,0,0-20.315-20.314Zm0,0" transform="translate(-214.435 -50.441)" fill="#ff8709"/>
    <path id="Trazado_102" data-name="Trazado 102" d="M225.123,175.96H181.343a2.941,2.941,0,0,1,0-5.881h43.779a2.941,2.941,0,1,1,0,5.881Zm0,0" transform="translate(-139.029 -132.542)" fill="#ff8709"/>
    <path id="Trazado_103" data-name="Trazado 103" d="M169.113,330.5l-20.465-3.98c0,5.232-9.472,9.473-9.472,9.473s-9.473-4.241-9.473-9.473l-20.465,3.98c-7.728,2.275-13.034,6.312-13.034,14.368v17.345a5.243,5.243,0,0,0,5.243,5.243H176.9a5.243,5.243,0,0,0,5.243-5.243V344.867c0-8.056-5.306-12.093-13.034-14.368Zm0,0" transform="translate(-74.971 -254.456)" fill="#deecf1"/>
    <path id="Trazado_104" data-name="Trazado 104" d="M443.5,350.609a12.939,12.939,0,0,1,2.473,8.029v27.591h1.578a5.243,5.243,0,0,0,5.243-5.243V363.64c0-6.676-3.647-10.591-9.294-13.031Zm0,0" transform="translate(-345.622 -273.228)" fill="#a8d3d8"/>
    <path id="Trazado_105" data-name="Trazado 105" d="M220.907,326.52l-7.669,1.491c.456,4.249,4.228,8.093,8.117,10.983a3.358,3.358,0,0,0,3.727.175l5.3-3.176s-9.472-4.242-9.472-9.473Zm0,0" transform="translate(-166.176 -254.456)" fill="#8ebac5"/>
    <path id="Trazado_106" data-name="Trazado 106" d="M300.379,326.52c0,5.232-9.473,9.473-9.473,9.473l5.3,3.176a3.357,3.357,0,0,0,3.727-.175c3.889-2.89,7.661-6.733,8.117-10.983Zm0,0" transform="translate(-226.703 -254.456)" fill="#8ebac5"/>
    <path id="Trazado_107" data-name="Trazado 107" d="M142.445,336.731l1.141,3.817a70.819,70.819,0,0,1,2.808,19.742v12.433h28.817s0-5.926,0-10.3a14.041,14.041,0,0,0-2.557-8.081c-4.779-6.792-14.584-21.068-14.585-21.068L147.1,335.411a27.693,27.693,0,0,0-4.653,1.32Zm0,0" transform="translate(-111.007 -259.722)" fill="#ff9838"/>
    <path id="Trazado_108" data-name="Trazado 108" d="M323.673,336.731l-1.141,3.817a70.787,70.787,0,0,0-2.808,19.742v12.433H290.906s0-5.926,0-10.3a14.041,14.041,0,0,1,2.557-8.081c4.779-6.792,14.584-21.068,14.585-21.068l10.971,2.134a27.716,27.716,0,0,1,4.653,1.32Zm0,0" transform="translate(-226.703 -259.722)" fill="#ff8709"/>
    <path id="Trazado_109" data-name="Trazado 109" d="M338.782,452.709H328.754a1.21,1.21,0,0,1-1.21-1.21v-3.417a1.21,1.21,0,0,1,1.21-1.211h10.028a1.211,1.211,0,0,1,1.211,1.211V451.5A1.211,1.211,0,0,1,338.782,452.709Zm0,0" transform="translate(-255.254 -348.245)" fill="#fff156"/>
  </g>
</svg>
